<svg width="3627" height="1909" viewBox="0 0 3627 1909" fill="none" xmlns="http://www.w3.org/2000/svg">
<path fill-rule="evenodd" clip-rule="evenodd" d="M3244.45 762.775C3159.8 762.818 3077.53 734.721 3010.59 682.905C2943.65 631.088 2895.84 558.492 2874.68 476.535H2437.27C2392.1 476.542 2348.39 492.57 2313.93 521.768C2279.46 550.966 2256.47 591.442 2249.05 635.995L2233.3 730.216C2218.85 816.718 2175.04 895.603 2109.25 953.602C2175.07 1011.63 2218.88 1090.56 2233.3 1177.11L2249.05 1271.21C2256.47 1315.76 2279.46 1356.24 2313.93 1385.44C2348.39 1414.63 2392.1 1430.66 2437.27 1430.67H2493.1C2516.45 1340.85 2571.74 1262.61 2648.6 1210.58C2725.47 1158.56 2818.66 1136.31 2910.74 1148C3002.82 1159.7 3087.49 1204.53 3148.91 1274.11C3210.33 1343.7 3244.29 1433.27 3244.45 1526.08C3244.63 1619.11 3210.83 1708.99 3149.4 1778.85C3087.96 1848.71 3003.13 1893.73 2910.84 1905.45C2818.54 1917.16 2725.14 1894.78 2648.2 1842.49C2571.25 1790.2 2516.05 1711.61 2492.98 1621.5H2437.27C2346.93 1621.48 2259.52 1589.43 2190.58 1531.03C2121.65 1472.63 2075.67 1391.68 2060.82 1302.58L2045.08 1208.47C2037.65 1163.92 2014.66 1123.45 1980.2 1094.25C1945.73 1065.05 1902.03 1049.02 1856.85 1049.02H1705.6C1684.41 1130.93 1636.61 1203.48 1569.7 1255.28C1502.79 1307.08 1420.57 1335.18 1335.95 1335.18C1251.33 1335.18 1169.11 1307.08 1102.2 1255.28C1035.29 1203.48 987.489 1130.93 966.298 1049.02H751.353C727.997 1138.84 672.716 1217.08 595.849 1269.1C518.983 1321.13 425.794 1343.37 333.713 1331.68C241.632 1319.99 156.964 1275.16 95.5442 1205.57C34.1243 1135.99 0.159108 1046.41 0.000740215 953.602C-0.182388 860.579 33.6193 770.691 95.0531 700.833C156.487 630.975 241.323 585.956 333.616 574.238C425.91 562.519 519.306 584.908 596.253 637.197C673.199 689.485 728.397 768.072 751.473 858.189H966.179C987.288 776.171 1035.07 703.499 1102.01 651.61C1168.95 599.721 1251.25 571.561 1335.95 571.561C1420.65 571.561 1502.95 599.721 1569.89 651.61C1636.83 703.499 1684.61 776.171 1705.72 858.189H1856.85C1902.03 858.182 1945.73 842.154 1980.2 812.956C2014.66 783.758 2037.65 743.282 2045.08 698.729L2060.82 604.509C2075.7 515.424 2121.69 434.501 2190.62 376.129C2259.55 317.756 2346.95 285.717 2437.27 285.709H2874.8C2898.15 195.885 2953.44 117.645 3030.3 65.6205C3107.17 13.5958 3200.36 -8.6501 3292.44 3.04318C3384.52 14.7365 3469.19 59.5682 3530.61 129.154C3592.03 198.739 3625.99 288.313 3626.15 381.122C3626.15 482.343 3585.94 579.418 3514.35 650.992C3442.77 722.566 3345.68 762.775 3244.45 762.775ZM3244.45 571.949C3295.07 571.949 3343.61 551.844 3379.4 516.057C3415.19 480.27 3435.3 431.733 3435.3 381.122C3435.3 330.512 3415.19 281.974 3379.4 246.187C3343.61 210.4 3295.07 190.296 3244.45 190.296C3193.83 190.296 3145.29 210.4 3109.5 246.187C3073.71 281.974 3053.6 330.512 3053.6 381.122C3053.6 431.733 3073.71 480.27 3109.5 516.057C3145.29 551.844 3193.83 571.949 3244.45 571.949ZM381.701 1144.43C406.764 1144.43 431.581 1139.49 454.736 1129.9C477.891 1120.31 498.93 1106.26 516.652 1088.54C534.374 1070.82 548.432 1049.78 558.023 1026.63C567.614 1003.48 572.551 978.662 572.551 953.602C572.551 928.542 567.614 903.728 558.023 880.576C548.432 857.424 534.374 836.387 516.652 818.667C498.93 800.947 477.891 786.891 454.736 777.301C431.581 767.711 406.764 762.775 381.701 762.775C331.084 762.775 282.541 782.88 246.749 818.667C210.958 854.454 190.851 902.992 190.851 953.602C190.851 1004.21 210.958 1052.75 246.749 1088.54C282.541 1124.32 331.084 1144.43 381.701 1144.43ZM1526.8 953.602C1526.8 1004.21 1506.69 1052.75 1470.9 1088.54C1435.11 1124.32 1386.57 1144.43 1335.95 1144.43C1285.33 1144.43 1236.79 1124.32 1201 1088.54C1165.21 1052.75 1145.1 1004.21 1145.1 953.602C1145.1 902.992 1165.21 854.454 1201 818.667C1236.79 782.88 1285.33 762.775 1335.95 762.775C1386.57 762.775 1435.11 782.88 1470.9 818.667C1506.69 854.454 1526.8 902.992 1526.8 953.602ZM3053.6 1526.08C3053.6 1551.14 3048.66 1575.96 3039.07 1599.11C3029.48 1622.26 3015.42 1643.3 2997.7 1661.02C2979.98 1678.74 2958.94 1692.79 2935.79 1702.38C2912.63 1711.97 2887.81 1716.91 2862.75 1716.91C2837.69 1716.91 2812.87 1711.97 2789.72 1702.38C2766.56 1692.79 2745.52 1678.74 2727.8 1661.02C2710.08 1643.3 2696.02 1622.26 2686.43 1599.11C2676.84 1575.96 2671.9 1551.14 2671.9 1526.08C2671.9 1475.47 2692.01 1426.93 2727.8 1391.15C2763.59 1355.36 2812.13 1335.26 2862.75 1335.26C2913.37 1335.26 2961.91 1355.36 2997.7 1391.15C3033.49 1426.93 3053.6 1475.47 3053.6 1526.08Z" fill="white"/>
</svg>
