<svg width="500" height="500" viewBox="0 0 500 500" fill="none" xmlns="http://www.w3.org/2000/svg">
<path d="M151.5 85.5C148.2 87.15 142.4 91.3 139 93C142.474 93 144.706 92.4893 147.957 91.5117C161.337 88.1603 177.517 89.1118 190 95C190.33 95.99 190.66 96.98 191 98C190.143 98.1702 189.286 98.3403 188.403 98.5156C187.259 98.758 186.116 99.0003 184.938 99.25C183.812 99.482 182.687 99.7141 181.528 99.9531C177.511 101.145 174.556 102.808 171 105C171.713 104.984 172.427 104.969 173.161 104.952C188.446 104.662 202.987 105.08 218 108C218.885 108.171 219.769 108.342 220.68 108.519C228.095 109.958 228.095 109.958 231.592 110.65C238.392 111.967 245.07 112.743 252 113C252 113.99 252 114.98 252 116C245.677 119.463 239.466 121.458 232.5 123.25C231.487 123.518 230.474 123.786 229.43 124.062C226.955 124.716 224.479 125.362 222 126C225.844 127.688 229.582 129.287 233.625 130.437C237.604 131.587 241.553 132.809 245.5 134.062C247.664 134.718 249.831 135.364 252 136C252.787 136.231 253.573 136.461 254.383 136.699C265.421 139.411 277.835 138.597 289 137C284.818 145.222 275.55 149.372 267.079 152.137C263.735 153.154 260.376 154.096 257 155C246.014 157.844 246.014 157.844 236 163C237.267 163.984 238.539 164.962 239.813 165.938C240.874 166.755 240.874 166.755 241.957 167.59C245.399 169.965 248.615 170.227 252.688 170.562C254.179 170.688 254.179 170.688 255.699 170.816C256.459 170.877 257.218 170.938 258 171C257.409 174.03 256.537 175.917 254.602 178.312C254.122 178.913 253.643 179.514 253.149 180.133C252.646 180.749 252.143 181.365 251.625 182C250.638 183.229 249.651 184.458 248.664 185.688C247.967 186.546 247.967 186.546 247.255 187.422C240.921 195.388 240.122 195.858 235.188 205.875C231.951 212.747 229.879 219.629 228 227C227.01 226.67 226.02 226.34 225 226C224.28 224.105 224.28 224.105 223.789 221.617C223.599 220.705 223.409 219.792 223.214 218.852C223.02 217.87 222.825 216.887 222.625 215.875C211.195 162.425 178.238 117.306 116.438 125.75C106.557 127.447 97.6272 131.571 88.0002 134C82.878 131.332 78.416 128.263 73.0002 126C75.1696 131.839 77.5055 136.818 81.0002 142C82.1986 145.922 81.933 147.897 80.1604 151.551C77.6595 157.368 77.0135 162.922 76.4377 169.188C74.8637 184.28 74.018 199.949 69.5976 214.568C68.7092 218.185 68.8683 220.453 70.0002 224C71.9362 225.513 71.9362 225.513 74.0002 226C74.4333 224.639 74.4333 224.639 74.8752 223.25C75.7655 220.678 76.7152 218.387 78.0002 216C78.9902 216 79.9802 216 81.0002 216C81.3302 219.3 81.6602 222.6 82.0002 226C83.3202 225.01 84.6402 224.02 86.0002 223C85.7314 221.693 85.7314 221.693 85.4572 220.359C83.3792 208.722 84.6897 199.975 91.0002 190C91.209 189.165 91.4179 188.329 91.633 187.469C93.0002 185 93.0002 185 96.5197 183.559C97.9453 183.165 99.3768 182.792 100.813 182.438C107.669 180.682 112.062 178.879 116.188 172.75C121.008 163.442 120.9 153.013 118 143C151.3 153.746 185.58 208.071 169.684 240.621C158.494 256.432 150.018 263.321 141.469 281.203C141.046 282.085 140.623 282.967 140.188 283.875C139.831 284.636 139.474 285.396 139.106 286.18C138 288 138 288 135 290C132.922 289.84 132.922 289.84 131 289C126.53 280.22 126.147 266.906 129 257.438C130.156 254.498 131.663 251.797 133.192 249.039C137.76 241.452 137.76 241.452 138.36 233.066C136.747 230.521 134.932 228.31 133 226C128.248 217.207 122.822 205.249 125 195C126.399 193.25 126.399 193.25 128 192C128.66 192 129.32 192 130 192C130.99 190.02 130.99 190.02 132 188C132.99 188 133.98 188 135 188C135.087 188.608 135.173 189.217 135.262 189.844C136.223 195.839 137.65 201.582 139.438 207.375C139.643 208.052 139.848 208.73 140.06 209.428C141.284 213.294 142.761 216.618 145 220C145.471 204.557 142.125 192.592 133 180C132.134 181.083 132.134 181.083 131.25 182.188C130.508 183.116 129.765 184.044 129 185C128.443 185.804 127.886 186.609 127.313 187.438C122.34 192.947 116.271 196.574 109 198C107.68 198 106.36 198 105 198C104.735 198.574 104.469 199.147 104.196 199.738C103 202 103 202 101.492 203.98C97.1991 209.84 96.8423 213.67 97.4377 220.625C97.6366 223.527 97.7314 226.17 97.0002 229C93.2021 233.056 89.1655 234.915 84.0002 237C83.1275 237.374 82.2548 237.748 81.3557 238.133C79.6003 238.835 77.8041 239.434 76.0002 240C75.3402 238.68 74.6802 237.36 74.0002 236C73.4201 236.116 72.8401 236.232 72.2424 236.352C69.5544 236.662 67.6249 236.703 65.0002 236C59.0785 229.471 55.0376 221.384 58.0136 212.996C61.7723 201.582 62.7492 189.779 63.6569 177.884C64.4459 167.756 66.1076 158.179 68.6975 148.355C69.1148 145.109 67.6882 143.199 66.1838 140.398C60.9869 129.868 59.9824 118.514 59.0002 107C59.0002 107 77.4493 114.638 85.051 119.242C93.7201 122.613 109.347 113.533 119 113C117.996 108.08 118.335 103.799 120 99C108.316 103.42 100.298 111.336 90.0002 117C87.2814 115.41 84.5362 113.868 82.0002 112C82.0002 112 105.219 92.3759 113 89C114.037 88.5424 115.073 88.0848 116.141 87.6133C122.622 85.1955 151.5 85.5 151.5 85.5ZM129 111C129 111.33 129 111.66 129 112C129.87 112.083 129.87 112.083 130.757 112.168C133.401 112.422 136.044 112.68 138.688 112.937C139.6 113.025 140.512 113.112 141.451 113.201C142.781 113.332 142.781 113.332 144.137 113.465C144.949 113.543 145.76 113.622 146.597 113.703C149.098 114.012 151.535 114.476 154 115C154.194 114.325 154.387 113.649 154.586 112.953C154.847 112.061 155.107 111.169 155.375 110.25C155.758 108.927 155.758 108.927 156.149 107.578C156.921 105.239 157.836 103.166 159 101C148.242 100.476 137.954 105.518 129 111ZM165 119C166.051 119.508 167.101 120.016 168.184 120.539C175.17 123.952 181.974 127.309 188.301 131.871C192.156 134.659 193.096 136.397 196.938 139.5C203.579 145.029 206.048 149.213 211.735 156.758C217.367 164.819 221.432 172.919 224.875 182.125C225.277 183.177 225.68 184.229 226.094 185.312C227.071 187.872 228.04 190.434 229 193C232.209 189.923 234.912 186.929 237.313 183.188C237.824 182.397 238.336 181.607 238.863 180.793C239.239 180.201 239.614 179.61 240 179C237.879 177.494 235.754 175.995 233.625 174.5C233.022 174.071 232.419 173.641 231.797 173.199C227.924 170.199 225.073 168.036 221 166C221.49 161.757 224.021 158.866 227 156C229.552 154.298 232.225 152.985 235 151.688C236.048 151.168 236.048 151.168 237.117 150.639C240.718 148.896 243.995 147.54 248 147C242.609 143.406 236.156 141.903 230 140C229.245 139.763 228.49 139.526 227.712 139.281C210.648 134.015 180.243 137.146 208 120C208.99 119.34 209.98 118.68 211 118C198.462 113.82 176.399 111.401 165 119Z" fill="black"/>
<path d="M176 162C182.285 164.323 185.803 171.402 189 177C190.953 181.253 192.545 185.554 194 190C194.522 191.471 194.522 191.471 195.055 192.973C199.652 207.695 199.077 225.735 193 240C193.771 239.988 194.542 239.977 195.336 239.965C196.339 239.956 197.342 239.947 198.375 239.938C199.373 239.926 200.371 239.914 201.399 239.902C204 240 204 240 206 241C206 241.66 206 242.32 206 243C205.25 243.219 204.5 243.438 203.727 243.664C185.792 249.221 179.019 255.623 171.5 269.812C166.622 279.641 166.766 288.279 167 299C167.594 298.613 168.189 298.227 168.801 297.828C181.831 289.641 192.902 287.774 208 288C208 288.99 208 289.98 208 291C207.261 291.098 206.523 291.196 205.762 291.297C177.994 295.39 172.228 309.605 152.59 319.238C150.653 320.189 148.719 321.15 146.817 322.168C135.512 327.531 117.268 321.814 105.438 319.938C102.747 319.513 100.057 319.091 97.3656 318.674C95.7076 318.417 94.0503 318.155 92.3938 317.889C76.3014 315.355 77.2951 319.635 67.9376 329.625C61.1048 336.589 58.1659 342.07 51.6798 350.184C49.6761 353.543 49.4449 355.149 50.0001 359C51.4405 362.198 53.1409 365.153 54.8829 368.195C56.0001 371 56.0001 371 55.2735 373.227C54.6432 374.104 54.6432 374.104 54.0001 375C50.301 380.549 45.1735 383.857 39.0001 388C38.3749 388.445 37.7497 388.889 37.1056 389.348C34.472 391.208 33.3111 392 30.0001 392C28.8964 370.785 35.5754 349.781 45.0001 331C45.6149 329.726 46.2281 328.451 46.8399 327.176C50.2054 320.223 53.7798 313.414 57.6876 306.75C58.0438 306.13 58.4 305.51 58.7669 304.872C61.6098 300.134 64.3485 296.777 69.7579 295.191C73.8981 294.947 77.7698 295.424 81.8751 295.938C90.7476 296.903 99.5907 297.254 108.509 297.301C109.903 297.308 111.297 297.322 112.691 297.34C122.245 297.457 131.473 297.175 139.938 292.312C143.247 288.602 144.989 284.369 146.926 279.832C151.758 268.597 158.584 259.455 166.688 250.938C182.354 233.426 185.195 212.791 184 190C183.193 182.329 180.967 175.126 177.867 168.086C177.03 166.071 176.472 164.127 176 162Z" fill="black"/>
<path d="M309 306C309.026 306.834 309.052 307.668 309.078 308.527C309.738 321.624 313.504 328.933 323 338C331.241 345.257 341.159 350.048 350.793 355.168C354.074 356.936 357.341 358.718 360.551 360.613C361.173 360.978 361.794 361.344 362.435 361.72C365.047 363.856 365.887 366.175 366.336 369.461C366.735 399.225 355.999 432.041 340.688 457.312C340.279 457.995 339.871 458.678 339.45 459.381C338.262 461.238 338.262 461.238 336 464C334.68 464 333.36 464 332 464C328.404 453.726 325.344 443.989 326 433C326.988 432.518 327.975 432.036 328.992 431.539C330.287 430.901 331.581 430.263 332.875 429.625C333.526 429.308 334.177 428.991 334.848 428.664C337.582 427.311 339.828 426.172 342 424C344.218 413.907 343.111 402.597 343.063 392.312C343.058 390.436 343.053 388.559 343.049 386.682C343.038 382.121 343.021 377.561 343 373C342.367 372.827 341.733 372.654 341.081 372.476C335.498 370.887 330.488 368.977 325.375 366.25C317.974 362.426 310.434 359.061 302.781 355.777C300.248 354.671 297.751 353.489 295.25 352.312C291.457 350.545 287.704 349.293 283.688 348.125C278.957 346.587 275.866 344.992 272.93 340.918C271.297 337.55 271.206 334.559 272 331C273.886 325.612 276.666 321.743 281 318C281.553 317.518 282.106 317.036 282.676 316.539C289.953 310.603 299.45 306 309 306Z" fill="black"/>
<path d="M196 304L199 307C201.695 311.146 201.491 315.225 201 320C199.549 326.791 195.445 332.773 191 338C191 338 186.071 343.66 183 346C179.647 346.856 176.253 347.122 172.812 347.437C170.661 347.669 168.51 347.905 166.359 348.145C165.189 348.274 164.02 348.404 162.814 348.538C155.706 349.399 148.637 350.523 141.562 351.625C125.029 354.2 125.029 354.2 117 355C116.881 355.86 116.763 356.72 116.64 357.605C115.991 361.047 114.988 364.04 113.75 367.312C105.934 386.184 105.934 386.184 105.887 405.734C107.265 408.54 108.19 408.751 111 410C113.412 411.504 114.96 412.913 117 415C116.866 420.382 114.394 424.415 111.75 428.937C111.367 429.615 110.984 430.292 110.59 430.99C107.984 435.535 105.216 439.861 102 444C101.34 444 100.68 444 99.9998 444C97.6754 438.939 96.1032 434.049 94.8748 428.625C94.7059 427.921 94.5371 427.217 94.3631 426.492C92.5159 418.522 91.8443 410.61 91.8318 402.441C91.8285 401.653 91.8252 400.865 91.8218 400.053C91.8167 398.394 91.8143 396.734 91.8145 395.074C91.8123 392.6 91.7942 390.125 91.7752 387.65C91.6474 351.46 91.6474 351.46 98.9373 339.937C104.87 336.184 111.741 335.403 118.562 334.176C138.725 330.485 157.104 324.391 172.785 310.758C174.994 309.004 177 307 177 307C183.302 302.798 188.499 301.5 196 304Z" fill="black"/>
<path d="M386 146C384.657 150.858 382.633 154.209 379.562 158.188C378.78 159.212 377.998 160.237 377.191 161.293C376.468 162.186 375.745 163.08 375 164C374.424 164.755 374.424 164.755 373.836 165.525C371.048 167.764 367.828 168.418 364.43 169.305C363.675 169.511 362.921 169.716 362.143 169.928C359.723 170.587 357.299 171.231 354.875 171.875C351.726 172.723 348.578 173.577 345.43 174.43C344.65 174.64 343.87 174.851 343.067 175.068C337.596 176.55 332.141 178.084 326.699 179.672C325.669 179.97 325.669 179.97 324.617 180.274C318.528 182.068 312.787 184.414 307 187C305.616 187.602 304.232 188.202 302.848 188.801C293.173 192.89 286.955 196.566 279.437 200.812C271.56 205.417 265.76 209.859 260 217C259.535 217.532 259.069 218.065 258.59 218.613C253.524 224.856 250.379 233.761 251.062 241.812C259.365 287.063 310.385 267.892 340.312 282.875C341.319 283.367 342.326 283.86 343.363 284.367C346.002 286.001 347.353 287.403 349 290C348.34 290.33 347.68 290.66 347 291C344.628 290.174 342.384 289.135 340.094 288.105C308.327 276.755 274.944 294.052 246.437 267.188C237.66 257.689 234.462 247.171 234.684 234.441C237.61 202.616 271.463 183.156 298 172C298.922 171.603 299.845 171.206 300.795 170.797C307.887 167.776 315.035 165.164 322.375 162.812C324.128 162.249 324.128 162.249 325.917 161.674C341.776 156.682 357.897 152.587 374.01 148.505C375.411 148.149 376.812 147.79 378.212 147.427C383.778 146 383.778 146 386 146Z" fill="black"/>
<path d="M243.848 311.488C248.159 314.516 250.989 318.741 254 323C255.312 324.813 256.624 326.626 257.938 328.437C258.91 329.795 258.91 329.795 259.902 331.18C265.807 339.118 278.008 359.112 288 364C292.795 368.572 297.58 373.328 297.75 380.25C297.524 383.887 296.294 386.773 294.812 390.08C293.982 392.043 293.312 394.007 292.668 396.039C289.234 406.768 284.89 416.93 280 427.062C279.707 427.674 279.414 428.286 279.113 428.917C275.239 436.979 270.945 444.552 266 452C261.553 458.939 257.05 464.269 251 470C250.01 469.67 249.02 469.34 248 469C246.224 461.705 245.745 454.866 245.875 447.375C245.884 446.371 245.893 445.367 245.902 444.332C245.926 441.888 245.958 439.444 246 437C247.048 436.662 248.096 436.325 249.176 435.977C250.555 435.526 251.934 435.076 253.312 434.625C254.003 434.403 254.693 434.182 255.404 433.953C258.608 432.901 261.176 431.882 264 430C264.826 427.998 264.826 427.998 265.281 425.617C265.583 424.254 265.583 424.254 265.89 422.863C266.091 421.877 266.293 420.891 266.5 419.875C266.714 418.862 266.927 417.849 267.147 416.805C271.278 397.56 271.278 397.56 272 378C270.25 375.988 268.638 374.392 266.625 372.687C266.087 372.213 265.549 371.738 264.995 371.248C254.441 362.015 243.981 350.318 230.5 345.125C227.889 343.942 227.167 343.376 225.984 340.715C225.498 338.958 225.051 337.191 224.645 335.414C222.385 326.952 213.282 326.25 212 319C221.363 310.123 231.433 305.27 243.848 311.488Z" fill="black"/>
<path d="M322 296C322.99 296 323.98 296 325 296C325.247 297.176 325.495 298.351 325.75 299.562C328.058 308.479 332.422 313.051 340 318C354.822 325.758 373.382 330.953 389.926 333.332C393.21 334.046 395.311 334.998 398 337C402.334 345.347 403.672 354.305 405.062 363.5C405.239 364.664 405.415 365.828 405.597 367.027C406.826 375.363 407.787 383.568 408 392C408.02 392.684 408.041 393.368 408.062 394.073C408.47 409.225 407.789 424.506 403 439C400.388 439 396.45 434.069 394.187 431.062C393.74 430.471 393.293 429.88 392.833 429.271C383.714 417.035 383.714 417.035 384.387 412.25C385.762 407.204 394.112 403.698 395 396C393.377 385.197 388.321 374.411 383.945 364.46C383 362 383 362 382.497 359.3C381.773 356.152 381.154 354.434 379 352C373.112 349.785 367.087 349.016 360.875 348.188C343.312 345.629 323.694 340.385 315.617 322.41C312.927 311.906 315.113 302.887 322 296Z" fill="black"/>
<path d="M418.627 299.267C438.944 322.667 447.268 365.997 447 395C438.47 393.186 430.801 385.292 425.207 378.922C423.717 376.55 423.201 374.795 423 372C423.926 370.043 423.926 370.043 425.312 368.188C429.049 362.555 429.049 362.555 430 356C426.238 346.104 416.782 335.364 410.16 327.672C407.158 323.959 405.602 320.063 401 317C390.41 315.992 376.85 320.009 366.277 321.344C355.84 322.041 344.971 316.952 337.125 310.25C334.407 307.642 332.202 305.35 331.625 301.5C332 299 332 299 333.625 297.25C342.754 292.446 410.734 293.018 418.627 299.267Z" fill="black"/>
<path d="M204 326C209.99 326.125 212.952 327.996 217.266 332.109C221.16 336.354 222.314 340.04 222.496 345.777C221.05 352.257 217.276 356.03 212.063 359.812C210.911 360.66 209.76 361.507 208.61 362.355C207.723 363 207.723 363 206.819 363.658C204.962 365.028 203.142 366.437 201.328 367.863C186.397 379.581 183.538 379.024 180.894 399.906C180.352 404.247 179.852 408.592 179.357 412.938C179.134 414.853 178.9 416.767 178.652 418.68C177.292 427.37 177.292 427.37 179.328 435.672C181.085 437.765 182.821 439.36 185 441C186.454 442.237 186.454 442.237 187.938 443.5C188.618 443.995 189.299 444.49 190 445C188.31 456.267 182.027 465.249 175 474C172.362 472.681 172.152 471.144 171.25 468.449C165.607 450.28 163.702 431.478 161.75 412.625C161.661 411.786 161.572 410.947 161.48 410.083C160.537 401.086 159.825 392.115 159.699 383.066C159.68 382.323 159.661 381.579 159.642 380.813C159.637 376.385 160.201 373.724 163.063 370.312C164.346 369.174 165.658 368.068 167 367C168.157 365.823 169.303 364.635 170.438 363.438C172.757 361.148 175.147 358.99 177.625 356.875C181.481 353.541 185.127 350.02 188.75 346.438C196.122 339.237 199.542 334.322 204 326Z" fill="black"/>
<path d="M361 181C360.702 181.733 360.404 182.467 360.098 183.223C359.449 184.864 358.822 186.515 358.246 188.184C353.505 201.398 344.82 212.18 335 222C335.66 222.33 338.32 221.66 339 222C333.028 229.353 326 236.297 326 236.297C306.009 236.668 286.516 236.225 267 242V239C279.135 228.912 294.775 225.85 310.049 224.163C323.923 222.471 329.727 216.409 336 207C312.147 209.992 280.911 214.568 263.328 232.727C262 234 262 234 260 234C260.449 229.271 262.6 226.596 265.75 223.25C266.483 222.466 266.483 222.466 267.231 221.665C286.1 202.153 316.922 192.162 343.488 189.512C347.93 188.865 349.004 187.227 352 184C354.839 182.419 357.698 181 361 181Z" fill="black"/>
<path d="M129 154C155.394 166.477 185.125 209.002 169.684 240.621C160.328 253.841 151.963 260.106 144.875 274.348C144.563 274.977 144.251 275.606 143.93 276.254C143 278 143 278 141 281C137.746 266.972 140.764 256.898 148.062 244.938C148.528 244.225 148.993 243.512 149.473 242.777C154.757 233.168 155.644 224.637 155.75 213.875C155.778 212.427 155.808 210.979 155.84 209.531C156.047 199.605 154.086 198.627 150 190.062C143.932 177.409 133.204 166.611 129 154Z" fill="#474747"/>
<path d="M478 91C490.625 123.825 415.235 164 382 164L396.355 142.309C428.282 129.527 455.102 118.477 478 91Z" fill="black"/>
<path d="M227 24L250 108L227 106C227 106 227.505 63.29 227 34L209 101C209 101 207.7 101.34 206 101L227 24Z" fill="black"/>
<path d="M449 151C437.5 187 384.67 204.543 357 204L364 187C393.5 183.5 429 169 449 151Z" fill="black"/>
<path d="M251 84C277.593 88.9581 323.5 125.172 327 157C323.37 157.99 319.74 158.98 316 160C312.5 145.5 300.5 127.5 293 123L274 134L286.5 115C276.5 103.5 258.5 95.5 252.046 95.1008L251 84Z" fill="black"/>
<path d="M405 203C392.5 230.5 357.78 237.174 333 237L345 223C364.5 223 385.745 217.121 405 203Z" fill="black"/>
<path d="M312.686 245.133C329.269 249.021 346 246.5 355 242C355 260.407 317.235 259.718 305 256C291.848 250.261 278.274 248.822 264 249L265 246C279.732 239.007 297.435 241.519 312.686 245.133Z" fill="black"/>
<path d="M118 143C122.875 144.75 122.875 144.75 124 147C123.34 147.33 122.68 147.66 122 148C122.495 149.072 122.99 150.145 123.5 151.25C126.552 159.517 125.84 167.88 122.191 175.812C118.842 181.961 114.677 185.739 108 188C105.001 188.554 102.044 188.859 98.9998 189C98.7626 189.674 98.5254 190.348 98.281 191.043C96.4026 195.378 93.8332 199.244 91.2771 203.209C88.4641 207.735 87.0671 211.774 85.9998 217C85.6698 217 85.3398 217 84.9998 217C82.9142 207.141 85.7058 198.368 90.9998 190C91.2086 189.165 91.4175 188.329 91.6326 187.469C92.9998 185 92.9998 185 96.5193 183.559C97.9449 183.165 99.3764 182.792 100.812 182.438C107.668 180.682 112.062 178.879 116.187 172.75C121.008 163.442 120.899 153.013 118 143Z" fill="#474747"/>
<path d="M93.0002 156C92.8856 157.438 92.7581 158.876 92.6252 160.312C92.5555 161.113 92.4859 161.914 92.4142 162.738C91.6538 166.892 86.2798 171.884 83.0002 175C82.0102 174.67 81.0202 174.34 80.0002 174C79.6259 169.321 79.5561 165.922 81.6252 161.625C84.9497 157.951 87.985 156 93.0002 156Z" fill="black"/>
<path d="M206 83C203.5 87.5 204 87.5 202.5 92C195.5 89 191.5 88 185 87.5C191 84 198.5 81.5 206 83Z" fill="black"/>
<path d="M230.2 127L252.7 121L255.2 133.5L230.2 127Z" fill="black"/>
</svg>
