<svg width="530" height="565" viewBox="0 0 530 565" fill="none" xmlns="http://www.w3.org/2000/svg">
<g clip-path="url(#clip0_52_12)">
<path d="M101.704 17.0947C101.993 17.0947 102.283 17.0947 102.581 17.0947C103.102 17.7493 103.588 18.4312 104.06 19.122C106.091 21.9848 108.347 24.6082 110.653 27.2511C111.357 28.0626 112.053 28.8801 112.747 29.7C114.759 32.0738 116.755 34.4177 118.998 36.5796C119.724 37.3043 120.383 38.0645 121.047 38.8466C124.122 42.407 127.524 45.7654 131.11 48.8099C132.059 49.6225 132.976 50.4663 133.897 51.3114C139.421 56.2852 145.284 60.8698 151.241 65.3104C151.548 65.5402 151.856 65.7699 152.173 66.0066C162.382 73.5957 173.254 80.2451 184.201 86.7061C194.494 92.7809 204.79 98.9033 214.367 106.075C213.519 102.923 212.389 100.026 210.97 97.0889C210.682 96.487 210.682 96.487 210.388 95.8729C209.026 93.0832 207.566 90.5188 205.6 88.1033C205.744 87.814 205.889 87.5247 206.038 87.2266C213.603 89.323 221.112 91.7286 228.339 94.8031C228.626 94.9247 228.912 95.0462 229.208 95.1714C230.607 95.7667 232.001 96.3715 233.39 96.9914C233.895 97.2101 234.401 97.4287 234.921 97.6539C235.365 97.8515 235.809 98.049 236.267 98.2526C238.432 98.8536 240.41 98.4323 242.422 97.4947C242.889 97.2774 242.889 97.2774 243.366 97.0557C243.697 96.8949 244.028 96.7341 244.369 96.5684C244.725 96.3974 245.08 96.2264 245.447 96.0502C255.313 91.1984 265.992 85.2262 274.268 77.8694C275.302 77.1452 275.302 77.1452 276.141 77.2491C277.141 77.6148 277.84 78.0644 278.691 78.7033C279.003 78.9341 279.314 79.165 279.636 79.4028C279.969 79.6522 280.302 79.9017 280.645 80.1586C289.111 86.373 298.056 91.6886 307.468 96.3492C307.929 96.5834 308.39 96.8176 308.865 97.0588C312.125 98.6485 312.125 98.6485 315.633 98.1847C317.519 97.4588 319.369 96.6622 321.222 95.8561C326.278 93.6987 331.394 91.7795 336.593 89.9935C336.923 89.8789 337.252 89.7642 337.592 89.6461C338.539 89.3178 339.488 88.9946 340.437 88.6734C341.252 88.3965 341.252 88.3965 342.084 88.1141C343.81 87.631 345.416 87.4059 347.196 87.2266C347.01 87.5038 346.824 87.781 346.632 88.0666C344.504 91.3105 342.755 94.6583 341.086 98.1573C340.826 98.6908 340.565 99.2241 340.304 99.7574C339.94 100.517 339.94 100.517 339.567 101.292C339.238 101.976 339.238 101.976 338.903 102.674C338.322 103.939 338.322 103.939 338.429 105.636C338.876 105.301 339.324 104.966 339.785 104.621C349.06 97.7571 359.059 91.9918 368.964 86.0955C383.966 77.1616 398.72 67.8469 412.076 56.5439C412.309 56.3477 412.542 56.1515 412.782 55.9494C416.199 53.065 419.541 50.1112 422.818 47.0673C423.48 46.4567 424.15 45.8544 424.822 45.2536C428.558 41.8935 431.999 38.2918 435.404 34.599C436.078 33.8689 436.756 33.143 437.437 32.419C440.752 28.8514 443.717 25.0249 446.641 21.1355C446.841 20.871 447.041 20.6065 447.248 20.334C447.63 19.8276 448.009 19.3193 448.386 18.8089C448.829 18.2215 449.301 17.6556 449.777 17.0947C450.066 17.0947 450.355 17.0947 450.654 17.0947C450.765 17.4931 450.765 17.4931 450.88 17.8995C450.986 18.2667 451.092 18.634 451.201 19.0124C451.354 19.5463 451.354 19.5463 451.51 20.0911C451.891 21.2418 452.314 22.3379 452.775 23.4573C458.821 38.4047 462.697 55.3433 464.101 71.4007C464.195 72.7753 464.195 72.7753 464.682 74.0769C465.851 81.6445 465.752 89.4003 465.75 97.0341C465.751 97.3354 465.751 97.6368 465.751 97.9472C465.76 108.073 465.246 117.98 463.521 127.974C463.369 128.855 463.222 129.736 463.076 130.618C462.51 133.994 461.878 137.352 461.175 140.702C461.067 141.223 461.067 141.223 460.958 141.755C459.694 147.799 457.782 153.661 455.942 159.549C454.268 164.919 452.719 170.269 451.53 175.768C454.091 173.585 456.393 171.34 458.544 168.755C458.846 168.415 459.147 168.075 459.457 167.724C461.841 164.96 463.684 162.06 465.477 158.887C465.933 158.08 466.402 157.28 466.874 156.482C467.018 156.482 467.163 156.482 467.312 156.482C467.04 159.544 466.462 162.432 465.723 165.413C465.604 165.893 465.485 166.373 465.363 166.868C465.113 167.878 464.861 168.888 464.609 169.897C464.269 171.28 463.949 172.666 463.634 174.054C460.709 186.54 456.069 198.94 450.658 210.561C450.475 210.966 450.292 211.371 450.104 211.788C449.944 212.126 449.784 212.465 449.62 212.814C448.914 215.543 450.064 217.833 451.357 220.184C451.516 220.481 451.674 220.778 451.838 221.083C452.343 222.025 452.854 222.963 453.366 223.902C453.701 224.526 454.036 225.151 454.37 225.776C455.913 228.648 457.489 231.491 459.188 234.274C459.996 235.605 460.78 236.95 461.562 238.296C467.194 247.978 473.163 257.378 479.393 266.686C479.566 266.945 479.74 267.205 479.919 267.472C480.82 268.814 481.741 270.136 482.698 271.439C483.532 272.638 483.532 272.638 483.532 273.514C477.758 272.742 471.993 271.93 466.235 271.053C465.047 270.873 463.858 270.699 462.67 270.525C462.268 270.466 461.867 270.407 461.453 270.346C460.682 270.233 459.911 270.12 459.139 270.009C458.793 269.958 458.447 269.906 458.091 269.854C457.786 269.809 457.481 269.765 457.167 269.719C456.352 269.57 456.352 269.57 455.037 269.131C456.565 270.926 458.112 272.668 459.805 274.309C461.52 276.001 463.027 277.818 464.534 279.696C465.551 280.957 466.593 282.195 467.641 283.432C477.352 295.122 485.642 307.732 491.806 321.648C491.997 322.077 492.188 322.506 492.385 322.949C492.639 323.543 492.639 323.543 492.899 324.149C493.049 324.498 493.198 324.846 493.352 325.206C493.615 326.113 493.615 326.113 493.176 327.428C492.962 327.236 492.747 327.044 492.526 326.846C486.801 321.991 480.021 318.237 473.011 315.594C472.71 315.48 472.408 315.366 472.098 315.249C466.679 313.243 461.123 311.957 455.476 310.772C455.683 311.171 455.89 311.571 456.104 311.983C464.411 328.171 469.351 345.093 472.572 362.933C472.724 363.743 472.876 364.552 473.028 365.362C473.684 368.952 474.081 372.421 473.888 376.082C472.543 374.759 471.249 373.412 469.989 372.006C463.634 364.927 455.908 359.426 446.27 358.111C446.404 358.637 446.404 358.637 446.542 359.173C446.66 359.654 446.778 360.135 446.9 360.631C447.017 361.099 447.134 361.567 447.254 362.049C450.147 375.772 447.713 391.361 443.639 404.573C443.527 404.942 443.415 405.311 443.299 405.691C440.567 414.482 436.55 422.83 431.365 430.435C431.138 430.769 430.91 431.103 430.676 431.447C429.961 432.492 429.24 433.533 428.515 434.571C428.289 434.896 428.062 435.221 427.829 435.556C427.511 436.003 427.511 436.003 427.187 436.46C426.905 436.858 426.905 436.858 426.617 437.264C426.104 437.886 426.104 437.886 425.228 438.324C425.237 437.815 425.246 437.306 425.255 436.782C425.417 426.927 425.52 417.334 423.474 407.642C423.401 407.29 423.329 406.937 423.254 406.575C422.461 402.831 421.298 399.248 419.946 395.673C419.529 394.492 419.529 394.492 419.529 393.615C419.239 393.615 418.95 393.615 418.652 393.615C418.642 394.012 418.642 394.012 418.631 394.417C418.411 398.351 417.28 401.924 416.076 405.642C415.969 405.977 415.862 406.312 415.752 406.657C409.013 427.713 399.01 447.627 385.335 465.062C385.049 465.436 384.763 465.809 384.469 466.194C376.158 477.026 366.846 487.943 356.383 496.764C355.257 497.728 354.176 498.738 353.087 499.745C351.344 501.337 349.598 502.764 347.634 504.073C348.163 502.351 348.814 500.757 349.612 499.143C355.839 486.531 362.208 470.995 362.539 456.734C359.893 459.267 357.507 461.915 355.227 464.78C354.576 465.591 353.917 466.394 353.256 467.197C350.54 470.504 347.922 473.845 345.443 477.335C345.007 477.937 344.57 478.538 344.133 479.138C339.245 485.856 334.556 492.679 330.099 499.69C329.858 500.069 329.616 500.449 329.367 500.84C323.328 510.34 317.432 519.959 312.379 530.026C312.183 530.414 311.987 530.802 311.785 531.201C311.617 531.54 311.448 531.88 311.275 532.229C310.811 533.002 310.811 533.002 309.934 533.441C309.789 527.944 309.645 522.448 309.496 516.784C309.206 516.784 308.917 516.784 308.619 516.784C308.501 517.046 308.383 517.308 308.261 517.577C307.742 518.538 307.238 519.132 306.453 519.882C306.199 520.128 305.945 520.375 305.683 520.628C305.413 520.888 305.143 521.147 304.865 521.414C302.641 523.594 300.582 525.813 298.649 528.26C297.726 529.412 296.774 530.526 295.803 531.637C289.277 539.122 283.285 547.231 277.963 555.612C277.536 556.272 277.079 556.913 276.617 557.549C276.328 557.549 276.038 557.549 275.74 557.549C275.255 556.956 275.255 556.956 274.72 556.115C274.517 555.802 274.314 555.489 274.105 555.167C273.885 554.823 273.665 554.479 273.439 554.124C267.549 545.11 260.822 536.786 253.821 528.619C253.554 528.307 253.286 527.994 253.01 527.672C249.899 524.083 246.706 520.536 243.3 517.223C242.764 518.831 242.761 520.345 242.723 522.022C242.714 522.361 242.705 522.699 242.696 523.048C242.667 524.129 242.641 525.21 242.615 526.291C242.596 527.024 242.577 527.757 242.558 528.49C242.511 530.286 242.467 532.083 242.424 533.879C241.372 532.553 240.566 531.188 239.776 529.693C239.524 529.218 239.272 528.743 239.012 528.254C238.745 527.751 238.479 527.248 238.204 526.729C236.1 522.783 233.941 518.892 231.593 515.085C230.913 513.97 230.249 512.847 229.586 511.723C219.36 494.449 208.053 477.623 195.024 462.323C194.809 462.069 194.593 461.815 194.371 461.554C192.925 459.867 191.406 458.289 189.818 456.734C189.623 459.817 190.337 462.694 190.996 465.692C191.116 466.243 191.236 466.793 191.359 467.361C192.249 471.363 193.331 475.206 194.64 479.089C194.852 479.778 195.061 480.469 195.269 481.16C196.351 484.749 197.502 488.187 199.151 491.564C199.757 492.818 200.334 494.077 200.897 495.351C201.16 495.943 201.16 495.943 201.427 496.547C201.773 497.331 202.118 498.115 202.461 498.9C202.622 499.261 202.782 499.621 202.947 499.993C203.089 500.315 203.231 500.636 203.376 500.968C203.833 501.92 203.833 501.92 204.56 502.821C205.161 503.635 205.161 503.635 205.161 504.511C203.736 503.89 202.832 503.141 201.764 502.018C200.656 500.882 199.544 499.79 198.339 498.758C194.099 495.097 190.06 491.205 186.092 487.252C185.809 486.971 185.526 486.69 185.234 486.401C183.57 484.731 181.991 483.009 180.45 481.225C179.452 480.077 178.416 478.969 177.379 477.856C175.137 475.426 173.027 472.91 170.968 470.322C170.787 470.098 170.607 469.873 170.421 469.642C154.651 450.027 133.706 419.375 133.706 393.177C133.416 393.177 133.127 393.177 132.829 393.177C132.759 393.412 132.69 393.647 132.618 393.889C132.516 394.233 132.414 394.576 132.308 394.93C132.128 395.545 132.128 395.545 131.944 396.172C131.656 397.1 131.347 398.022 131.015 398.935C126.549 411.742 126.846 424.956 127.13 438.324C125.535 436.758 124.142 435.164 122.856 433.338C122.667 433.072 122.479 432.805 122.285 432.531C115.257 422.456 110.736 411.536 107.403 399.752C107.262 399.255 107.262 399.255 107.118 398.748C104.052 387.669 100.738 368.809 106.088 358.111C98.6297 359.618 92.7058 362.511 86.7991 367.316C86.3379 367.659 85.8768 368.003 85.4017 368.357C83.8172 369.836 82.508 371.482 81.1652 373.18C80.3162 374.216 79.4344 375.155 78.4699 376.082C78.8476 366.991 80.333 358.191 82.4153 349.345C82.4904 349.02 82.5656 348.696 82.643 348.362C85.6821 335.334 90.1815 322.393 96.8818 310.772C83.1412 313.509 69.8358 317.916 59.1812 327.428C58.8919 327.284 58.6025 327.139 58.3044 326.99C63.7597 313.531 70.3006 301.166 79.3466 289.732C79.636 289.365 79.9253 288.997 80.2234 288.618C81.0931 287.522 81.9717 286.435 82.8537 285.349C83.297 284.798 83.297 284.798 83.7493 284.236C87.5386 279.557 91.3852 274.895 95.7379 270.725C96.4829 270.041 96.4829 270.041 96.8818 269.131C96.3754 269.214 96.3754 269.214 95.8588 269.298C92.6789 269.815 89.4989 270.331 86.3186 270.846C84.6836 271.11 83.0487 271.376 81.4138 271.642C79.8365 271.898 78.2589 272.154 76.6812 272.409C76.0791 272.507 75.4769 272.604 74.8749 272.703C74.0323 272.84 73.1894 272.976 72.3466 273.112C71.6267 273.229 71.6267 273.229 70.8923 273.348C69.7023 273.514 69.7023 273.514 68.3872 273.514C69.0381 271.573 70.1109 270.104 71.3462 268.501C74.267 264.611 76.8395 260.517 79.4162 256.393C80.221 255.109 81.0322 253.828 81.845 252.549C87.0824 244.276 91.9885 235.811 96.6934 227.225C97.4767 225.798 98.2829 224.385 99.0976 222.975C99.3219 222.582 99.5461 222.189 99.7771 221.783C100.209 221.025 100.647 220.269 101.09 219.517C101.284 219.172 101.479 218.827 101.68 218.472C101.854 218.171 102.028 217.87 102.208 217.56C103.133 215.011 102.497 212.887 101.473 210.481C101.357 210.204 101.241 209.927 101.122 209.641C100.874 209.048 100.623 208.455 100.37 207.864C99.7023 206.298 99.0528 204.725 98.4024 203.151C98.2716 202.836 98.1408 202.52 98.006 202.195C96.2995 198.059 94.8141 193.846 93.3409 189.622C92.9852 188.617 92.6153 187.621 92.2343 186.625C88.5753 176.964 86.4733 166.614 84.6072 156.482C85.5378 157.358 86.226 158.204 86.871 159.305C87.0443 159.595 87.2176 159.885 87.3962 160.184C87.5789 160.49 87.7616 160.796 87.9498 161.112C89.78 164.111 91.8092 166.66 94.2515 169.193C94.7663 169.784 95.2779 170.377 95.7858 170.974C97.5138 172.962 99.3848 174.803 101.266 176.645C100.37 173.278 99.394 169.945 98.3613 166.618C98.135 165.884 98.135 165.884 97.9042 165.135C97.0944 162.512 96.2753 159.892 95.4451 157.275C92.405 147.668 89.6344 138.167 88.1964 128.183C88.1528 127.884 88.1092 127.586 88.0643 127.278C86.6636 117.517 86.1653 107.683 86.1689 97.8286C86.1686 97.0694 86.1686 97.0694 86.1684 96.2948C86.201 79.8325 88.4771 63.8218 92.0596 47.7774C92.1827 47.2257 92.3057 46.6741 92.4325 46.1057C94.1955 38.419 96.6809 30.9577 99.2175 23.4984C99.3653 23.0608 99.3653 23.0608 99.5161 22.6144C100.163 20.7311 100.902 18.9151 101.704 17.0947Z" fill="#0F1623"/>
<path d="M107.841 39.4492C109.402 39.9693 109.684 40.4322 110.663 41.723C114.093 46.1252 117.778 50.3038 121.577 54.3899C122.181 55.0496 122.783 55.7109 123.363 56.3918C125.736 59.1776 128.32 61.745 130.911 64.3262C131.704 65.1169 132.495 65.9099 133.285 66.7032C135.602 69.0213 137.917 71.314 140.414 73.4402C141.62 74.4722 142.768 75.5663 143.925 76.652C146.425 78.9746 149.017 81.1466 151.679 83.2816C152.202 83.7124 152.724 84.1439 153.246 84.5761C162.854 92.5097 173.117 99.5872 183.589 106.325C185.681 107.678 187.75 109.067 189.818 110.458C189.818 106.05 185.057 99.6743 182.366 96.4314C182.51 96.1421 182.655 95.8528 182.804 95.5547C199.379 104.542 214.471 114.899 228.834 127.114C226.064 113.061 218.466 99.4196 208.23 89.4182C207.941 89.2735 207.651 89.1289 207.353 88.9799C207.353 88.6906 207.353 88.4013 207.353 88.1032C206.919 88.2479 206.485 88.3925 206.038 88.5415C206.038 88.1076 206.038 87.6737 206.038 87.2266C213.603 89.323 221.112 91.7285 228.339 94.8031C228.626 94.9246 228.912 95.0462 229.208 95.1714C230.607 95.7667 232.001 96.3715 233.39 96.9914C233.895 97.21 234.401 97.4286 234.921 97.6539C235.365 97.8514 235.809 98.049 236.267 98.2525C238.432 98.8536 240.41 98.4322 242.422 97.4947C242.889 97.2774 242.889 97.2774 243.366 97.0557C243.697 96.8949 244.028 96.734 244.369 96.5684C244.724 96.3974 245.08 96.2264 245.447 96.0502C255.313 91.1983 265.992 85.2261 274.268 77.8694C275.302 77.1451 275.302 77.1451 276.141 77.249C277.141 77.6148 277.84 78.0643 278.691 78.7032C279.003 78.9341 279.314 79.1649 279.636 79.4028C279.969 79.6522 280.302 79.9016 280.645 80.1586C289.111 86.373 298.056 91.6886 307.468 96.3492C307.929 96.5834 308.39 96.8175 308.865 97.0588C312.124 98.6485 312.124 98.6485 315.633 98.1847C317.519 97.4587 319.369 96.6622 321.222 95.8561C326.278 93.6987 331.394 91.7795 336.593 89.9935C337.087 89.8215 337.087 89.8215 337.592 89.6461C338.539 89.3177 339.488 88.9946 340.437 88.6734C340.981 88.4888 341.524 88.3042 342.084 88.114C343.81 87.631 345.416 87.4059 347.196 87.2266C346.107 88.7039 345.305 89.4889 343.689 90.2948C341.498 92.16 339.719 94.3989 338.017 96.7053C337.677 97.1643 337.677 97.1643 337.33 97.6325C331.939 104.993 323.524 117.648 323.524 127.114C323.832 126.822 324.141 126.53 324.459 126.229C327.568 123.316 330.798 120.633 334.18 118.043C334.862 117.517 335.535 116.979 336.207 116.44C343.351 110.768 351.168 105.861 359.032 101.253C359.462 101.001 359.892 100.749 360.335 100.489C361.724 99.6789 363.117 98.8757 364.512 98.0751C365.177 97.6897 365.177 97.6897 365.855 97.2966C366.266 97.063 366.677 96.8295 367.101 96.5889C367.469 96.3786 367.836 96.1682 368.215 95.9515C368.512 95.8206 368.809 95.6896 369.115 95.5547C369.404 95.6994 369.694 95.844 369.992 95.993C369.795 96.2292 369.597 96.4654 369.394 96.7088C366.113 100.903 363.951 105.676 361.663 110.458C379.466 101.895 395.877 87.8943 410.46 74.6932C411.077 74.1402 411.697 73.5887 412.331 73.0545C415.265 70.5624 417.957 67.8247 420.672 65.1005C421.527 64.2439 422.383 63.3897 423.24 62.5357C426.882 58.8973 426.882 58.8973 430.319 55.0672C431.271 53.9462 432.28 52.8808 433.283 51.8045C435.526 49.3759 437.624 46.8484 439.694 44.2708C440.432 43.3652 441.173 42.462 441.913 41.5587C442.244 41.1547 442.574 40.7507 442.915 40.3344C443.154 40.0423 443.393 39.7502 443.639 39.4492C448.994 44.8031 449.959 59.2693 451.53 66.6253C451.627 67.0795 451.725 67.5337 451.825 68.0017C452.345 70.4591 452.827 72.9219 453.284 75.3918C453.363 75.8121 453.442 76.2324 453.523 76.6655C453.777 78.0208 454.025 79.3771 454.27 80.7339C454.386 81.3553 454.386 81.3553 454.503 81.9894C454.947 84.5062 455.11 86.8624 455.037 89.4182C454.191 88.1483 453.817 87.1839 453.366 85.7404C453.213 85.262 453.061 84.7837 452.903 84.2909C452.658 83.5201 452.658 83.5201 452.407 82.7337C451.08 78.6736 449.657 74.6866 447.968 70.762C447.801 70.3644 447.633 69.9667 447.46 69.557C445.804 65.8041 443.619 62.383 440.571 59.6121C438.782 60.3209 437.587 61.6033 436.269 62.9544C436.035 63.1916 435.801 63.4288 435.56 63.6733C434.064 65.1999 432.619 66.7595 431.233 68.3872C430.365 69.3985 429.468 70.3802 428.57 71.3647C426.706 73.4318 424.942 75.5661 423.192 77.7296C422.512 78.5643 421.826 79.3934 421.138 80.2219C418.24 83.7169 415.392 87.2344 412.65 90.8543C412.022 91.6806 411.389 92.5033 410.756 93.3254C405.449 100.219 400.326 107.244 395.244 114.304C394.543 115.277 393.838 116.248 393.133 117.219C390.115 121.378 387.148 125.569 384.208 129.783C382.774 131.839 381.33 133.888 379.883 135.935C378.04 138.542 376.203 141.152 374.376 143.77C375.251 143.377 376.127 142.984 377.002 142.59C377.784 142.239 378.566 141.888 379.348 141.538C381.427 140.605 383.501 139.662 385.564 138.695C390.499 136.394 395.444 134.407 400.613 132.695C401.528 132.383 402.429 132.048 403.331 131.703C408.781 129.635 414.548 127.912 420.405 127.991C415.285 138.493 409.352 148.479 403.166 158.381C398.09 166.517 396.024 172.316 398.135 181.769C398.309 182.487 398.309 182.487 398.486 183.22C398.58 183.612 398.673 184.005 398.769 184.41C398.958 185.184 399.159 185.956 399.363 186.726C396.158 184.401 393.162 181.849 390.157 179.275C389.652 178.843 389.147 178.411 388.642 177.979C387.616 177.101 386.592 176.222 385.568 175.342C384.549 174.466 383.526 173.596 382.499 172.729C374.459 165.925 366.341 158.717 359.909 150.345C359.561 149.922 359.213 149.499 358.854 149.063C351.521 140.064 344.77 126.76 345.881 114.841C345.592 114.841 345.302 114.841 345.004 114.841C344.55 126.605 344.55 126.605 346.758 138.072C346.875 138.427 346.993 138.783 347.114 139.149C350.539 149.106 356.365 156.675 363.854 163.933C364.206 164.286 364.557 164.638 364.92 165.002C369.112 169.181 373.548 172.863 378.288 176.403C379.703 177.461 381.109 178.531 382.513 179.603C382.877 179.879 382.877 179.879 383.249 180.159C383.807 180.584 384.353 181.024 384.897 181.466C384.897 181.611 384.897 181.756 384.897 181.905C384.451 181.914 384.451 181.914 383.996 181.924C377.344 182.083 370.845 182.466 364.293 183.658C363.959 183.718 363.625 183.779 363.281 183.841C350.817 186.176 339.719 191.293 329.661 198.999C329.239 199.32 328.818 199.64 328.383 199.97C326.146 201.719 324.033 203.593 321.934 205.504C320.718 206.61 319.485 207.694 318.241 208.769C317.63 209.305 317.03 209.852 316.436 210.406C316.126 210.692 315.815 210.978 315.496 211.272C315.217 211.535 314.939 211.797 314.652 212.067C314.397 212.239 314.142 212.41 313.879 212.587C313.445 212.443 313.011 212.298 312.564 212.149C312.163 211.336 312.163 211.336 311.852 210.313C311.747 209.982 311.642 209.65 311.533 209.308C309.805 202.594 310.377 194.805 311.838 188.084C312.171 186.743 312.171 186.743 312.126 185.411C309.106 188.317 306.364 191.301 303.797 194.616C303.613 194.851 303.43 195.087 303.24 195.329C297.876 202.255 293.688 209.887 289.548 217.585C287.925 220.588 287.925 220.588 287.138 221.792C286.993 221.792 286.849 221.792 286.7 221.792C286.274 217.392 286.213 213.006 286.207 208.588C286.204 207.745 286.204 207.745 286.201 206.886C286.201 206.353 286.202 205.819 286.203 205.269C286.204 204.79 286.204 204.311 286.205 203.817C286.258 202.595 286.441 201.506 286.7 200.314C286.763 199.711 286.816 199.107 286.857 198.503C288.299 179.732 293.711 160.655 304.333 144.945C304.969 143.986 305.507 143.06 305.988 142.017C293.212 150.183 283.803 160.518 277.643 174.479C277.055 175.768 277.055 175.768 276.179 177.083C275.875 176.453 275.875 176.453 275.566 175.811C271.963 168.418 267.986 161.832 262.589 155.605C262.383 155.362 262.176 155.118 261.964 154.867C257.506 149.613 252.149 145.711 246.369 142.017C247.003 143.398 247.802 144.637 248.636 145.905C253.428 153.262 256.905 161.27 259.52 169.632C259.635 169.989 259.749 170.347 259.867 170.715C263.917 183.483 265.754 196.945 265.715 210.319C265.712 211.284 265.715 212.248 265.718 213.212C265.717 213.835 265.717 214.458 265.716 215.08C265.715 215.633 265.715 216.187 265.714 216.757C265.661 218.183 265.49 219.516 265.219 220.915C264.047 219.863 263.367 218.748 262.618 217.368C262.372 216.92 262.127 216.472 261.873 216.011C261.612 215.532 261.351 215.053 261.082 214.56C257.325 207.767 253.402 201.138 248.561 195.054C248.237 194.646 247.913 194.238 247.58 193.818C245.115 190.763 242.571 187.75 239.793 184.973C239.883 185.428 239.973 185.884 240.066 186.353C240.185 186.97 240.304 187.588 240.423 188.206C240.512 188.652 240.512 188.652 240.602 189.108C241.386 193.196 241.634 197.252 241.656 201.41C241.67 202.047 241.67 202.047 241.684 202.696C241.703 206.293 241.029 209.393 239.355 212.587C237.6 211.874 236.373 210.643 235.026 209.355C227.519 202.328 219.626 195.796 210.422 191.109C210.16 190.974 209.899 190.838 209.629 190.698C202.151 186.852 194.142 184.583 185.873 183.22C185.497 183.156 185.122 183.093 184.736 183.028C179.131 182.101 173.575 181.643 167.899 181.466C169.254 180.061 170.597 178.852 172.201 177.741C176.832 174.43 181.23 170.788 185.419 166.935C186.164 166.259 186.92 165.625 187.708 165.002C188.999 163.884 190.07 162.698 191.173 161.399C192.064 160.363 192.995 159.371 193.928 158.372C203.998 147.158 208.059 133.703 207.353 118.786C207.231 117.906 207.098 117.026 206.915 116.156C206.862 116.59 206.809 117.024 206.754 117.471C206.68 118.055 206.606 118.64 206.531 119.224C206.424 120.079 206.424 120.079 206.315 120.95C203.647 139.569 189.64 155.804 175.795 167.558C174.702 168.499 173.645 169.476 172.584 170.453C170.63 172.236 168.621 173.924 166.563 175.585C165.079 176.8 163.625 178.048 162.173 179.302C155.578 184.979 155.578 184.979 152.556 186.726C152.636 186.481 152.715 186.236 152.797 185.983C155.009 178.93 156.787 172.059 153.354 165.169C151.255 161.219 148.771 157.489 146.329 153.747C131.952 131.634 131.952 131.634 131.952 127.991C133.231 128.179 134.51 128.372 135.788 128.566C136.141 128.618 136.494 128.669 136.858 128.723C148.562 130.519 159.455 135.272 170.091 140.264C170.91 140.645 171.729 141.026 172.548 141.408C174.217 142.187 175.882 142.975 177.543 143.77C176.286 141.487 174.897 139.367 173.379 137.25C172.908 136.589 172.438 135.929 171.968 135.268C171.729 134.933 171.49 134.598 171.243 134.253C170.123 132.681 169.011 131.103 167.899 129.525C167.46 128.903 167.021 128.282 166.582 127.66C165.71 126.425 164.839 125.189 163.969 123.952C159.738 117.938 155.464 111.959 151.03 106.092C149.385 103.91 147.789 101.695 146.199 99.4722C143.793 96.1147 141.265 92.8754 138.655 89.6748C137.884 88.7274 137.124 87.7716 136.363 86.8156C132.373 81.835 128.349 76.8936 124.166 72.0733C123.718 71.5564 123.273 71.0371 122.828 70.5172C119.596 66.76 116.199 63.086 112.663 59.6121C108.201 61.5326 106.244 67.291 104.334 71.4469C104.191 71.7553 104.048 72.0636 103.901 72.3813C100.99 78.7395 98.9379 85.3773 96.8817 92.0481C96.7371 92.0481 96.5924 92.0481 96.4434 92.0481C96.6786 87.4536 97.3739 83.007 98.1969 78.4875C98.2631 78.1205 98.3293 77.7534 98.3975 77.3753C100.478 65.9135 103.064 54.5322 106.668 43.4474C107.09 42.1229 107.468 40.7883 107.841 39.4492Z" fill="#58626B"/>
<path d="M276.621 297.263C277.617 297.673 278.477 298.164 279.386 298.742C279.753 298.973 280.121 299.204 280.499 299.442C280.891 299.691 281.282 299.941 281.686 300.197C284.146 301.75 286.606 303.286 289.143 304.709C289.525 304.923 289.907 305.138 290.301 305.359C291.03 305.765 291.761 306.166 292.496 306.562C292.823 306.745 293.15 306.928 293.488 307.116C293.92 307.351 293.92 307.351 294.361 307.591C295.236 308.313 295.354 308.776 295.467 309.895C295.303 310.734 295.303 310.734 294.996 311.611C294.83 312.105 294.83 312.105 294.66 312.609C294.476 313.137 294.476 313.137 294.289 313.676C291.76 321.348 289.65 329.823 289.768 337.948C289.949 337.518 290.13 337.088 290.316 336.645C293.744 328.588 297.689 320.733 304.235 314.717C304.524 314.717 304.814 314.717 305.112 314.717C305.256 325.421 305.401 336.124 305.55 347.153C306.707 344.26 307.865 341.367 309.057 338.386C311.907 332.967 315.034 327.626 319.14 323.045C319.429 323.045 319.718 323.045 320.017 323.045C319.767 325.936 319.382 328.765 318.845 331.616C318.698 332.418 318.551 333.22 318.404 334.022C318.327 334.438 318.25 334.854 318.171 335.283C314.934 352.956 313.207 370.431 312.126 388.355C312.283 387.565 312.283 387.565 312.444 386.758C313.345 382.311 314.373 377.974 315.742 373.644C315.914 373.1 316.085 372.556 316.261 371.995C318.508 365.01 321.563 358.723 325.277 352.413C325.566 352.413 325.856 352.413 326.154 352.413C326.356 353.526 326.557 354.641 326.757 355.755C326.812 356.059 326.867 356.363 326.924 356.676C327.287 358.708 327.599 360.744 327.887 362.789C328.339 366.004 328.859 369.207 329.387 372.411C330.14 377.026 330.858 381.645 331.524 386.273C331.595 386.765 331.667 387.257 331.74 387.764C333.743 401.883 333.858 416.607 324.995 428.546C317.74 437.758 306.232 441.15 295.029 442.707C294.629 442.765 294.229 442.823 293.817 442.882C289.58 443.375 285.259 443.184 281.001 443.146C281.001 442.856 281.001 442.567 281.001 442.269C282.983 440.664 285.349 439.413 287.5 438.052C296.576 432.303 306.495 425.564 309.495 414.655C309.775 412.379 309.784 410.15 309.742 407.861C309.749 406.999 309.749 406.999 309.757 406.119C309.712 400.146 308.51 395.296 304.235 390.985C296.532 383.724 285.842 383.806 275.85 383.78C275.452 383.778 275.054 383.775 274.644 383.772C264.87 383.729 255.138 384.381 247.602 391.259C242.6 396.431 242.301 403.002 242.284 409.775C242.391 416.123 244.984 421.236 249.297 425.791C250.493 427.234 251.741 428.252 253.064 429.678C254.601 431.257 256.231 432.526 258.041 433.777C258.353 433.996 258.666 434.215 258.988 434.441C262.993 437.212 267.452 439.373 271.356 442.269C271.356 442.558 271.356 442.848 271.356 443.146C257.251 443.544 241.506 441.877 230.498 432.217C223.388 425.473 219.816 415.944 219.5 406.275C219.473 404.979 219.465 403.683 219.465 402.387C219.463 401.414 219.448 400.443 219.431 399.471C219.388 394.134 220.198 389.03 221.113 383.783C221.551 381.225 221.951 378.66 222.353 376.095C222.591 374.579 222.832 373.063 223.072 371.547C223.367 369.686 223.661 367.826 223.955 365.966C224.199 364.427 224.442 362.888 224.686 361.349C224.822 360.494 224.957 359.638 225.092 358.782C225.174 358.264 225.256 357.747 225.341 357.214C225.412 356.761 225.484 356.309 225.558 355.842C225.75 354.693 225.968 353.553 226.203 352.413C228.166 354.053 229.161 356.206 230.313 358.44C230.527 358.854 230.741 359.268 230.962 359.694C235.019 367.675 237.755 376.484 239.355 385.287C239.106 368.858 237.436 352.849 234.57 336.672C234.499 336.27 234.428 335.867 234.354 335.452C234.002 333.466 233.646 331.481 233.282 329.498C233.152 328.776 233.022 328.055 232.892 327.334C232.83 327.001 232.767 326.668 232.703 326.325C232.291 324.021 232.291 324.021 232.779 323.045C239.511 329.66 243.856 338.739 246.807 347.591C246.952 336.887 247.097 326.183 247.246 315.155C254.856 318.96 259.929 330.347 262.481 337.979C262.665 338.552 262.848 339.126 263.027 339.701C262.202 329.687 260.548 319.968 257.212 310.462C256.89 309.457 256.89 309.457 256.89 308.58C257.118 308.453 257.347 308.326 257.582 308.195C258.686 307.577 259.789 306.956 260.89 306.334C261.299 306.103 261.708 305.872 262.129 305.634C265.72 303.583 269.194 301.372 272.623 299.061C273.006 298.809 273.389 298.558 273.783 298.298C274.119 298.073 274.455 297.847 274.802 297.614C275.74 297.184 275.74 297.184 276.621 297.263Z" fill="#848F98"/>
<path d="M101.704 17.0947C101.993 17.0947 102.283 17.0947 102.581 17.0947C103.102 17.7493 103.588 18.4312 104.06 19.122C106.091 21.9848 108.347 24.6082 110.653 27.2511C111.357 28.0626 112.053 28.8801 112.747 29.7C114.759 32.0738 116.755 34.4177 118.998 36.5796C119.724 37.3043 120.383 38.0645 121.047 38.8466C124.122 42.407 127.524 45.7654 131.11 48.8099C132.059 49.6225 132.976 50.4663 133.897 51.3114C139.421 56.2852 145.284 60.8698 151.241 65.3104C151.548 65.5402 151.856 65.7699 152.173 66.0066C162.382 73.5957 173.254 80.2451 184.201 86.7061C194.494 92.7809 204.79 98.9033 214.367 106.075C213.517 102.893 212.355 99.9923 210.915 97.0341C210.73 96.6442 210.545 96.2544 210.355 95.8527C209.319 93.6978 208.206 91.662 206.877 89.6727C206.476 88.9799 206.476 88.9799 206.476 88.1033C206.766 88.1033 207.055 88.1033 207.353 88.1033C207.353 88.3926 207.353 88.6818 207.353 88.9799C207.594 89.0765 207.835 89.1731 208.083 89.2727C219.075 95.54 225.836 113.81 229.092 125.228C229.272 126.237 229.272 126.237 228.834 127.552C228.466 127.209 228.466 127.209 228.091 126.859C225.183 124.19 222.14 121.755 219.021 119.34C218.059 118.588 217.119 117.809 216.176 117.033C205.962 108.852 194.257 102.245 182.804 95.9931C182.995 96.2852 183.186 96.5773 183.383 96.8783C186.297 101.387 188.723 105.898 190.695 110.896C188.91 110.259 187.455 109.389 185.885 108.331C185.638 108.166 185.39 108 185.136 107.83C184.348 107.301 183.562 106.77 182.777 106.239C182.261 105.892 181.745 105.546 181.229 105.2C180.205 104.512 179.182 103.823 178.16 103.134C176.744 102.18 175.322 101.237 173.899 100.294C171.73 98.8489 169.597 97.3614 167.488 95.8287C167.151 95.5847 166.815 95.3407 166.468 95.0893C163.541 92.9596 160.668 90.7711 157.816 88.5416C157.317 88.1556 156.818 87.7698 156.318 87.3841C150.84 83.1395 145.653 78.6256 140.617 73.8663C139.415 72.7323 138.188 71.6316 136.951 70.536C134.331 68.1862 131.846 65.709 129.363 63.2173C128.58 62.432 127.795 61.6491 127.009 60.8664C124.471 58.3302 121.999 55.7758 119.677 53.0373C119.04 52.3326 118.401 51.6292 117.76 50.9279C114.783 47.6283 112.008 44.1731 109.336 40.6238C108.756 39.8341 108.756 39.8341 107.841 39.4493C107.773 39.8314 107.773 39.8314 107.704 40.2213C107.228 42.7638 106.586 45.2139 105.841 47.69C102.037 60.3442 99.39 73.3089 97.3201 86.35C96.7991 89.6291 96.193 92.8652 95.457 96.1027C92.9122 107.592 90.5119 119.288 89.8677 131.059C89.5784 131.059 89.289 131.059 88.9909 131.059C88.7072 129.545 88.4374 128.028 88.169 126.511C88.0927 126.105 88.0164 125.699 87.9378 125.28C86.3637 116.245 86.1655 106.979 86.1689 97.8286C86.1686 97.0694 86.1686 97.0694 86.1683 96.2948C86.201 79.8325 88.4771 63.8218 92.0596 47.7774C92.1826 47.2257 92.3057 46.6741 92.4325 46.1057C94.1955 38.419 96.6808 30.9577 99.2175 23.4984C99.316 23.2067 99.4146 22.9149 99.5161 22.6144C100.163 20.7311 100.901 18.9151 101.704 17.0947Z" fill="#111824"/>
<path d="M449.777 17.0947C450.066 17.0947 450.355 17.0947 450.653 17.0947C450.765 17.4931 450.765 17.4931 450.879 17.8995C450.986 18.2667 451.092 18.634 451.201 19.0124C451.303 19.3684 451.405 19.7243 451.51 20.0911C451.89 21.2418 452.314 22.3379 452.775 23.4573C458.821 38.4047 462.697 55.3433 464.101 71.4007C464.195 72.7753 464.195 72.7753 464.682 74.0769C465.823 81.4111 465.733 88.922 465.724 96.3219C465.723 97.2363 465.723 98.1508 465.724 99.0653C465.727 118.616 465.727 118.616 463.366 127.552C463.077 127.552 462.788 127.552 462.49 127.552C461.581 123.183 460.811 118.814 460.133 114.403C459.43 109.907 458.614 105.458 457.611 101.018C456.927 97.975 456.316 94.924 455.75 91.8564C455.661 91.3769 455.573 90.8975 455.482 90.4035C454.923 87.3368 454.391 84.2662 453.871 81.1928C452.576 73.5701 451.22 66.0433 449.201 58.5718C448.789 56.9974 448.431 55.4124 448.071 53.8256C447.022 49.2178 445.66 44.7775 444.078 40.3259C443.788 40.3259 443.499 40.3259 443.201 40.3259C442.485 41.1026 442.485 41.1026 441.721 42.134C438.007 46.8874 434 51.3667 429.882 55.772C429.369 56.3306 428.862 56.8954 428.36 57.4639C425.586 60.6006 422.656 63.5653 419.691 66.5202C418.842 67.3666 417.995 68.2154 417.149 69.0644C414.509 71.7055 411.863 74.2966 409.007 76.7068C408.303 77.3444 407.599 77.9833 406.898 78.6245C404.597 80.6981 402.214 82.6549 399.802 84.5967C399.305 85.0023 398.808 85.4081 398.312 85.814C394.4 88.9964 390.365 91.9763 386.256 94.8977C385.426 95.4897 384.601 96.0872 383.778 96.6883C377.299 101.405 370.478 105.633 363.7 109.903C363.412 110.085 363.123 110.267 362.826 110.454C362.101 110.896 362.101 110.896 361.224 111.334C361.947 108.893 363.023 106.675 364.156 104.403C364.35 104.014 364.544 103.624 364.744 103.222C366.086 100.584 367.523 98.1707 369.553 95.9931C369.292 96.1372 369.03 96.2813 368.761 96.4297C368.38 96.6382 368 96.8467 367.608 97.0615C367.164 97.305 366.72 97.5486 366.262 97.7995C365.209 98.3658 364.156 98.9194 363.091 99.4603C352.897 104.668 343.463 111.276 334.483 118.348C334.117 118.634 333.751 118.919 333.373 119.214C330.854 121.201 328.418 123.278 325.998 125.384C324.054 127.068 324.054 127.068 323.085 127.552C323.339 124.676 324.281 122.158 325.304 119.471C325.481 119.005 325.658 118.539 325.839 118.059C327.321 114.218 329.007 110.563 330.976 106.951C331.212 106.506 331.448 106.061 331.692 105.602C334.784 100.015 338.837 94.8959 343.251 90.2949C343.602 89.9126 343.602 89.9126 343.961 89.5227C344.566 88.9799 344.566 88.9799 345.443 88.9799C344.864 90.4787 344.218 91.9103 343.487 93.3409C343.28 93.7491 343.073 94.1574 342.86 94.578C342.431 95.4219 342 96.2654 341.569 97.1086C340.229 99.7566 339.041 102.422 337.99 105.198C338.135 105.343 338.279 105.487 338.428 105.636C338.876 105.301 339.324 104.966 339.785 104.621C349.06 97.7571 359.059 91.9918 368.964 86.0955C383.966 77.1616 398.72 67.8469 412.076 56.5439C412.309 56.3477 412.542 56.1515 412.782 55.9493C416.199 53.065 419.541 50.1112 422.817 47.0673C423.48 46.4566 424.15 45.8544 424.822 45.2536C428.558 41.8935 431.999 38.2918 435.404 34.599C436.078 33.8689 436.756 33.143 437.437 32.419C440.752 28.8514 443.717 25.0249 446.641 21.1355C446.841 20.871 447.041 20.6065 447.247 20.334C447.63 19.8276 448.009 19.3193 448.386 18.8089C448.829 18.2215 449.301 17.6556 449.777 17.0947Z" fill="#111824"/>
<path d="M211.299 214.341C215.969 216.466 219.904 220.474 223.573 223.984C224.183 224.559 224.183 224.559 224.806 225.146C227.943 228.18 230.608 231.454 233.218 234.942C233.405 235.188 233.592 235.433 233.784 235.686C238.182 241.479 241.474 247.809 244.643 254.338C244.852 254.766 245.061 255.194 245.277 255.635C246.236 257.645 247.06 259.427 247.246 261.68C247.535 261.68 247.824 261.68 248.122 261.68C248.197 261.424 248.272 261.169 248.348 260.906C249.229 257.926 250.195 254.979 251.191 252.036C251.48 252.036 251.77 252.036 252.068 252.036C258.758 278.961 258.758 278.961 255.575 289.294C253.753 290.509 252.021 290.734 249.876 291.047C249.483 291.111 249.09 291.175 248.686 291.241C246.907 291.402 245.567 291.362 244.018 290.411C240.089 287.109 236.515 283.469 232.916 279.815C231.954 278.841 230.99 277.867 230.026 276.894C229.431 276.294 228.837 275.692 228.244 275.09C220.259 267.022 210.809 260.357 200.777 255.105C200.498 254.956 200.219 254.807 199.932 254.654C187.65 248.123 174.304 243.335 160.885 239.763C160.885 239.474 160.885 239.185 160.885 238.887C166.877 236.603 173.227 234.396 179.708 234.476C180.128 234.48 180.548 234.484 180.98 234.488C181.449 234.496 181.449 234.496 181.927 234.503C180.928 233.313 179.897 232.153 178.859 230.997C178.539 230.632 178.219 230.267 177.889 229.891C173.471 225.138 167.823 221.877 162.2 218.724C162.2 218.579 162.2 218.435 162.2 218.285C178.352 219.743 195.264 227.784 208.668 236.695C209.003 236.916 209.338 237.137 209.684 237.364C216.503 241.876 222.999 246.794 229.272 252.036C227.005 239.59 219.653 227.102 212.538 216.868C211.737 215.656 211.737 215.656 211.299 214.341Z" fill="#56606A"/>
<path d="M341.497 213.464C341.497 215.236 340.81 215.871 339.771 217.299C332.344 227.761 326.265 239.58 323.085 252.036C323.451 251.7 323.451 251.7 323.825 251.358C341.184 235.511 366.066 220.744 389.719 217.847C390.153 218.064 390.153 218.064 390.595 218.285C390.373 218.422 390.15 218.558 389.921 218.699C382.21 223.344 382.21 223.344 375.372 229.149C374.375 230.12 374.375 230.12 373.499 230.12C373.349 230.473 373.349 230.473 373.197 230.832C372.432 232.218 371.464 233.306 370.43 234.503C370.788 234.505 371.145 234.506 371.514 234.507C375.208 234.627 378.607 235.237 382.184 236.175C382.602 236.283 383.02 236.392 383.45 236.504C386.211 237.256 388.84 238.206 391.472 239.325C390.208 240.168 389.23 240.469 387.772 240.812C365.085 246.165 342.78 257.25 325.901 273.364C324.972 274.24 324.014 275.081 323.058 275.925C319.891 278.766 316.794 281.744 314.044 284.993C309.43 290.399 309.43 290.399 306.427 291.486C303.278 291.591 300.152 290.842 297.221 289.732C295.337 287.848 295.774 282.422 295.739 279.898C295.774 257.428 295.774 257.428 300.728 252.475C301.885 255.368 303.042 258.261 304.235 261.241C305.159 260.317 305.449 259.693 305.937 258.497C306.094 258.118 306.251 257.739 306.413 257.349C306.664 256.74 306.664 256.74 306.92 256.118C311.904 244.286 318.915 234.025 327.907 224.86C328.167 224.595 328.426 224.329 328.694 224.055C332.594 220.103 337.087 216.822 341.497 213.464Z" fill="#56616A"/>
<path d="M420.844 305.95C420.258 306.492 419.672 307.033 419.085 307.575C418.569 308.052 418.053 308.529 417.537 309.006C416.314 310.138 415.086 311.262 413.842 312.371C406.442 318.986 400.015 326.493 394.102 334.441C394.531 334.435 394.959 334.428 395.4 334.421C397.024 334.396 398.648 334.381 400.273 334.369C400.969 334.363 401.665 334.354 402.361 334.342C412.329 334.181 421.155 336.582 430.05 341.016C428.992 341.545 428.576 341.433 427.42 341.268C425.219 340.995 423.051 340.938 420.835 340.927C420.424 340.925 420.012 340.922 419.588 340.92C418.72 340.916 417.851 340.913 416.983 340.911C415.685 340.907 414.388 340.893 413.091 340.879C405.954 340.839 398.896 341.378 392.075 343.619C391.714 343.732 391.353 343.845 390.981 343.961C388.466 344.762 386.001 345.657 383.581 346.714C383.937 346.903 383.937 346.903 384.299 347.096C385.368 347.668 386.434 348.246 387.499 348.824C387.872 349.022 388.245 349.22 388.629 349.424C388.983 349.618 389.338 349.811 389.703 350.01C390.032 350.187 390.36 350.364 390.698 350.546C391.472 351.098 391.472 351.098 391.911 352.413C391.634 352.552 391.357 352.691 391.072 352.834C385.662 355.655 381.017 359.217 376.567 363.371C375.958 363.903 375.346 364.433 374.732 364.96C370.764 368.434 367.187 372.252 364.731 376.959C364.442 376.959 364.152 376.959 363.854 376.959C362.267 366.199 364.007 357.003 368.238 347.153C368.533 346.423 368.826 345.693 369.115 344.961C353.379 355.919 345.894 374.251 342.151 392.401C341.946 393.556 341.81 394.695 341.703 395.862C341.497 397.56 341.497 397.56 340.62 398.437C340.064 394.878 339.507 391.318 338.951 387.759C338.693 386.106 338.434 384.453 338.176 382.799C337.925 381.199 337.675 379.599 337.425 377.999C337.331 377.393 337.236 376.787 337.141 376.182C336.922 374.779 336.703 373.375 336.485 371.972C336.319 370.912 336.15 369.852 335.977 368.793C335.896 368.294 335.816 367.795 335.733 367.281C335.625 366.624 335.625 366.624 335.515 365.954C335.256 363.835 335.094 362.152 336.245 360.304C336.438 359.99 336.631 359.677 336.829 359.353C337.041 359.025 337.252 358.696 337.469 358.357C337.686 358.013 337.903 357.668 338.126 357.312C341.266 352.376 344.795 347.724 348.511 343.208C349.011 342.596 349.011 342.596 349.521 341.972C352.402 338.487 355.469 335.238 358.676 332.053C359.473 331.261 360.265 330.465 361.056 329.668C364.401 326.319 367.792 323.05 371.745 320.415C371.8 323.757 371.8 323.757 371.307 325.237C371.676 325.018 372.045 324.799 372.425 324.574C385.48 316.969 399.442 311.659 413.842 307.229C414.704 306.963 415.564 306.69 416.422 306.411C416.812 306.286 417.203 306.161 417.605 306.033C417.946 305.921 418.287 305.81 418.639 305.695C419.528 305.512 419.528 305.512 420.844 305.95Z" fill="#556069"/>
<path d="M131.075 305.512C148.177 309.08 165.071 316.162 180.174 324.798C180.174 323.352 180.174 321.905 180.174 320.415C182.977 322.439 185.527 324.644 188.065 326.99C188.32 327.225 188.575 327.461 188.839 327.704C193.302 331.826 197.71 335.947 201.654 340.578C202.187 341.184 202.187 341.184 202.731 341.802C207.129 346.837 210.898 352.289 214.449 357.947C214.655 358.268 214.861 358.59 215.074 358.921C215.263 359.229 215.452 359.537 215.646 359.854C215.813 360.121 215.979 360.388 216.15 360.663C217.427 363.643 216.837 366.536 216.335 369.617C216.261 370.095 216.186 370.572 216.11 371.064C215.871 372.592 215.626 374.118 215.381 375.644C215.225 376.643 215.068 377.641 214.913 378.64C213.922 384.959 212.855 391.263 211.737 397.56C211.592 397.56 211.448 397.56 211.299 397.56C211.208 397.054 211.117 396.549 211.023 396.028C209.312 386.844 206.915 377.991 202.969 369.507C202.783 369.094 202.783 369.094 202.593 368.672C199.579 361.993 195.362 356.306 190.256 351.098C189.678 350.493 189.678 350.493 189.087 349.877C187.103 347.839 185.14 346.138 182.804 344.523C183.037 344.99 183.27 345.456 183.51 345.937C185.47 349.936 187.044 353.761 188.065 358.111C188.212 358.662 188.212 358.662 188.363 359.224C189.673 364.877 189.176 371.239 188.503 376.959C188.214 376.959 187.924 376.959 187.626 376.959C187.15 376.312 187.15 376.312 186.585 375.37C180.136 365.365 170.324 357.679 160.008 351.974C161.409 350.387 162.978 349.487 164.858 348.577C165.132 348.439 165.405 348.3 165.688 348.158C166.947 347.537 167.792 347.153 169.214 347.153C169.214 346.863 169.214 346.574 169.214 346.276C168.939 346.234 168.663 346.192 168.379 346.149C166.478 345.713 164.688 345.024 162.858 344.358C159.458 343.153 156.121 342.062 152.556 341.455C152.035 341.365 151.515 341.276 150.979 341.184C141.794 339.82 131.451 339.869 122.308 341.455C123.008 340.055 124.436 339.721 125.815 339.126C126.127 338.99 126.44 338.855 126.762 338.715C129.887 337.399 133.07 336.403 136.348 335.546C137.132 335.339 137.913 335.116 138.692 334.892C141.97 334.045 145.098 333.883 148.473 333.866C148.89 333.864 149.307 333.861 149.736 333.859C152.652 333.888 155.404 334.274 158.255 334.88C152.794 327.643 146.917 320.831 140.503 314.419C139.812 313.727 139.125 313.032 138.438 312.337C136.295 310.183 134.167 308.123 131.659 306.387C131.37 306.171 131.37 306.171 131.075 305.95C131.075 305.806 131.075 305.661 131.075 305.512Z" fill="#545F69"/>
<path d="M234.533 469.884C235.593 470.944 235.982 471.935 236.588 473.308C239.906 480.578 243.811 488.218 251.629 491.361C257.586 493.192 265.232 491.091 271.072 489.562C276.234 488.296 281.097 489.653 286.148 490.839C292.38 492.284 298.746 492.877 304.36 489.432C310.721 484.969 314.346 476.816 317.386 469.884C317.85 471.275 317.813 471.658 317.496 473.032C317.412 473.398 317.327 473.764 317.24 474.141C317.096 474.732 317.096 474.732 316.948 475.335C316.848 475.745 316.748 476.155 316.644 476.577C314 487.053 309.756 496.121 302.92 504.511C302.716 504.763 302.512 505.015 302.301 505.274C298.785 509.585 295.046 513.755 291.084 517.661C291.255 517.155 291.427 516.648 291.604 516.127C291.869 515.323 292.134 514.52 292.399 513.716C292.49 513.443 292.582 513.171 292.676 512.89C292.981 511.98 293.279 511.067 293.577 510.155C293.726 509.715 293.726 509.715 293.878 509.267C294.5 507.334 294.688 505.659 294.591 503.635C287.249 509.297 280.852 515.914 276.617 524.236C276.328 524.236 276.038 524.236 275.74 524.236C275.113 523.242 274.532 522.247 273.959 521.222C272.229 518.228 270.254 515.771 267.85 513.278C267.316 512.669 266.786 512.057 266.26 511.442C263.669 508.483 260.922 505.988 257.767 503.635C257.781 507.354 258.627 510.456 259.961 513.885C260.273 514.698 260.557 515.521 260.835 516.346C260.691 516.635 260.546 516.925 260.397 517.223C256.784 513.366 253.254 509.453 249.876 505.388C249.685 505.16 249.494 504.932 249.297 504.697C243.552 497.777 238.995 489.566 236.725 480.842C236.501 480.005 236.501 480.005 236.273 479.152C235.465 476.076 234.76 473.066 234.533 469.884Z" fill="#545E68"/>
<path d="M112.663 59.1738C113.434 60.3297 114.034 61.2634 113.888 62.6892C113.406 64.6469 112.867 66.5649 112.223 68.4759C109.618 76.215 107.995 84.1993 106.636 92.2399C106.549 92.7529 106.461 93.2658 106.372 93.7943C105.155 101.293 104.604 108.672 104.635 116.266C104.636 116.678 104.637 117.091 104.638 117.516C104.679 128.665 106.489 138.77 109.595 149.469C108.549 148.518 107.948 147.634 107.35 146.358C107.185 146.008 107.02 145.658 106.85 145.298C106.679 144.93 106.509 144.561 106.334 144.181C106.159 143.807 105.984 143.433 105.804 143.048C104.643 140.547 103.533 138.032 102.581 135.442C102.436 135.442 102.291 135.442 102.142 135.442C102.085 135.898 102.028 136.354 101.969 136.824C100.812 146.023 99.6153 155.209 98.1968 164.372C94.3272 158.568 92.9915 149.608 91.1827 142.866C91.0544 142.395 91.0544 142.395 90.9234 141.914C89.9464 138.311 89.1495 134.808 88.9908 131.059C89.2802 131.059 89.5695 131.059 89.8676 131.059C89.8597 130.711 89.8517 130.363 89.8435 130.005C89.7992 126.564 90.0384 123.282 90.5526 119.882C90.6657 119.113 90.6657 119.113 90.7811 118.328C91.4823 113.714 92.3183 109.126 93.1828 104.54C93.2475 104.196 93.3122 103.852 93.3788 103.497C95.5355 92.0792 95.5355 92.0792 96.8817 90.7332C97.2006 89.884 97.4871 89.0224 97.7567 88.1563C97.9269 87.6217 98.0971 87.0871 98.2725 86.5362C98.3626 86.2512 98.4528 85.9662 98.5456 85.6726C100.07 80.8817 101.734 76.191 103.759 71.5839C104.039 70.938 104.039 70.938 104.325 70.2791C109.324 59.1738 109.324 59.1738 112.663 59.1738Z" fill="#313A45"/>
<path d="M439.694 59.1738C445.857 61.8733 448.4 70.6122 450.707 76.409C452.194 80.247 453.421 84.1613 454.599 88.1032C454.888 87.9586 455.177 87.8139 455.476 87.6649C455.585 88.2575 455.585 88.2575 455.696 88.8621C455.972 90.3564 456.249 91.8506 456.527 93.3446C456.646 93.9859 456.765 94.6273 456.883 95.2687C457.451 98.3524 458.025 101.424 458.765 104.472C459.654 108.229 460.204 112.041 460.791 115.855C460.908 116.601 461.025 117.348 461.142 118.095C461.255 118.817 461.367 119.538 461.479 120.26C461.53 120.589 461.582 120.917 461.634 121.255C461.956 123.351 462.235 125.448 462.49 127.552C462.779 127.552 463.068 127.552 463.366 127.552C462.829 132.066 462.078 136.482 461.092 140.921C460.993 141.374 460.993 141.374 460.891 141.836C459.748 147.02 458.353 152.09 456.708 157.14C456.246 158.563 455.802 159.992 455.359 161.422C454.963 162.698 454.562 163.973 454.16 165.248C454.016 165.248 453.871 165.248 453.722 165.248C453.691 164.892 453.661 164.536 453.629 164.169C452.992 156.867 452.259 149.602 451.21 142.346C450.838 139.722 450.558 137.216 450.653 134.566C449.484 135.15 449.41 135.691 448.92 136.891C448.758 137.281 448.596 137.67 448.43 138.072C448.259 138.488 448.089 138.904 447.913 139.332C446.514 142.683 445.066 145.908 443.201 149.03C442.763 148.154 442.763 148.154 443.122 146.996C443.405 146.213 443.405 146.213 443.694 145.414C444.89 141.857 445.544 138.235 446.16 134.538C446.252 133.994 446.344 133.45 446.439 132.89C448.5 120.083 447.71 107.424 445.831 94.6781C445.715 93.874 445.715 93.874 445.597 93.0536C444.406 84.9999 442.554 77.1533 440.523 69.2775C440.446 68.9773 440.369 68.677 440.289 68.3677C439.88 66.8002 439.88 66.8002 439.255 65.3104C439.213 64.3523 439.199 63.3929 439.201 62.4339C439.2 61.918 439.198 61.4021 439.197 60.8706C439.255 59.6122 439.255 59.6122 439.694 59.1738Z" fill="#333C46"/>
<path d="M386.212 259.488C385.407 263.366 384.333 267.096 383.027 270.831C382.683 271.824 382.351 272.821 382.02 273.819C378.492 284.333 373.76 296.669 364.293 303.32C364.003 303.32 363.714 303.32 363.416 303.32C363.608 302.681 363.8 302.042 363.991 301.403C364.111 300.998 364.231 300.593 364.354 300.175C364.583 299.423 364.822 298.674 365.08 297.932C366.269 294.41 366.56 290.782 366.923 287.102C366.721 287.527 366.518 287.952 366.31 288.39C359.639 302.186 359.639 302.186 354.648 305.512C346.814 306.669 338.557 304.696 331.414 301.567C331.414 301.278 331.414 300.989 331.414 300.691C331.909 300.605 332.403 300.519 332.913 300.43C344.027 298.372 353.982 294.4 360.923 285.13C363.415 281.434 365.22 277.37 367.098 273.338C367.3 272.906 367.502 272.474 367.71 272.028C368.115 271.15 368.504 270.265 368.885 269.376C370.489 266.684 373.318 265.323 375.992 263.871C376.339 263.681 376.687 263.491 377.044 263.294C384.055 259.488 384.055 259.488 386.212 259.488Z" fill="#78838C"/>
<path d="M165.707 259.05C169.845 260.8 173.931 262.637 177.9 264.748C178.226 264.914 178.553 265.079 178.89 265.25C183.142 267.573 184.469 272.04 186.421 276.254C188.36 280.372 190.23 284.16 193.325 287.541C193.65 287.917 193.975 288.293 194.31 288.681C201.08 296.039 211.321 299.195 220.943 300.69C220.943 300.98 220.943 301.269 220.943 301.567C213.642 304.808 205.309 306.97 197.27 305.512C195.55 304.655 194.748 303.633 193.81 301.974C193.217 300.94 192.565 299.953 191.911 298.958C189.431 295.123 187.239 291.303 185.434 287.102C185.359 289.53 185.566 291.653 186.201 294.006C186.279 294.306 186.357 294.606 186.437 294.915C187.151 297.611 188.006 300.255 188.941 302.882C180.319 299.013 175.177 287.411 172 279.157C171.191 276.993 170.416 274.818 169.653 272.638C169.536 272.31 169.419 271.982 169.298 271.644C167.825 267.507 166.711 263.319 165.707 259.05Z" fill="#77828B"/>
<path d="M252.068 465.939C253.376 466.592 253.405 467.506 253.876 468.87C255.544 473.355 257.934 477.473 260.835 481.28C260.79 480.72 260.745 480.159 260.698 479.582C260.678 477.014 261.757 475.125 263.027 472.952C264.343 473.39 264.343 473.39 264.889 474.265C265.236 474.977 265.583 475.689 265.93 476.402C266.546 477.526 266.546 477.526 268.288 478.212C269.301 476.91 270.313 475.608 271.357 474.267C273.147 474.864 273.591 475.927 274.602 477.46C274.833 477.708 275.064 477.956 275.302 478.212C275.881 478.212 276.459 478.212 277.055 478.212C277.94 477.349 277.94 477.349 278.699 476.239C278.968 475.873 279.237 475.507 279.515 475.13C279.816 474.703 279.816 474.703 280.124 474.267C281.409 475.517 282.598 476.744 283.631 478.212C284.47 478.196 284.47 478.196 285.385 477.773C286.175 476.565 286.175 476.565 286.809 475.116C287.038 474.632 287.266 474.148 287.501 473.649C287.671 473.274 287.84 472.9 288.015 472.514C288.304 472.514 288.594 472.514 288.892 472.514C289.327 473.323 289.754 474.137 290.179 474.952C290.418 475.404 290.658 475.857 290.904 476.323C291.555 477.852 291.796 479.195 291.96 480.842C294.915 476.324 297.698 471.52 299.413 466.377C299.702 466.377 299.991 466.377 300.29 466.377C301.191 468.18 300.828 470.505 300.838 472.486C300.847 472.964 300.856 473.443 300.865 473.936C300.88 477.02 300.782 480.208 299.413 483.033C297.059 484.622 293.802 484.098 291.084 483.91C290.088 483.672 289.199 483.348 288.248 482.975C280.164 480.206 269.832 480.248 261.849 483.335C259.288 484.307 256.515 484.013 253.821 483.91C253.536 483.363 253.253 482.815 252.972 482.266C252.814 481.961 252.657 481.656 252.494 481.342C251.717 479.631 251.574 478.127 251.571 476.255C251.571 475.796 251.57 475.337 251.57 474.864C251.571 474.386 251.573 473.909 251.575 473.418C251.573 472.942 251.571 472.467 251.57 471.977C251.57 471.517 251.571 471.058 251.571 470.584C251.572 470.166 251.572 469.748 251.573 469.317C251.629 468.149 251.807 467.077 252.068 465.939Z" fill="#F2F3F3"/>
<path d="M351.141 262.995C351.311 270.605 351.311 270.605 350.265 274.391C350.19 274.712 350.114 275.033 350.037 275.364C348.957 279.322 346.291 282.967 342.889 285.258C336.774 288.651 329.877 288.556 323.085 288.417C323.707 286.992 324.455 286.088 325.578 285.02C326.76 283.893 327.85 282.726 328.913 281.488C330.471 279.693 332.137 278.059 333.88 276.446C334.186 276.161 334.492 275.877 334.808 275.584C338.737 271.954 342.795 268.555 347.059 265.323C347.364 265.091 347.669 264.859 347.984 264.619C350.158 262.995 350.158 262.995 351.141 262.995Z" fill="#F1090C"/>
<path d="M201.216 262.995C205.942 265.837 210.049 269.215 214.112 272.929C214.723 273.481 215.336 274.031 215.963 274.566C218.602 276.821 221.058 279.246 223.511 281.699C224.239 282.426 224.971 283.15 225.703 283.874C226.167 284.336 226.631 284.799 227.094 285.262C227.313 285.478 227.532 285.694 227.758 285.916C229.272 287.44 229.272 287.44 229.272 288.417C221.165 288.562 212.783 288.685 206.476 282.719C203.333 279.397 201.145 274.616 201.173 270.015C201.175 269.605 201.176 269.195 201.177 268.773C201.181 268.349 201.185 267.925 201.189 267.487C201.191 267.056 201.192 266.625 201.195 266.181C201.2 265.119 201.207 264.057 201.216 262.995Z" fill="#EC070D"/>
<path d="M255.575 450.597C255.976 450.628 256.377 450.659 256.79 450.691C260.697 450.975 264.574 451.1 268.492 451.094C269.358 451.095 269.358 451.095 270.241 451.095C271.452 451.096 272.663 451.095 273.874 451.093C275.404 451.09 276.934 451.092 278.464 451.094C287.413 451.115 287.413 451.115 296.344 450.597C296.425 455.416 294.347 459.87 291.522 463.747C291.233 463.892 290.943 464.036 290.645 464.185C290.554 463.91 290.463 463.634 290.37 463.35C289.354 460.53 288.084 458.304 285.823 456.296C285.389 456.151 284.955 456.006 284.508 455.857C284.345 456.21 284.345 456.21 284.179 456.57C283.494 457.872 282.762 459.062 281.878 460.241C281.444 460.241 281.01 460.241 280.563 460.241C279.96 459.525 279.376 458.793 278.809 458.049C277.125 456.926 276.421 456.84 274.425 457.172C273.242 458.225 272.293 459.405 271.357 460.679C270.626 459.948 269.895 459.218 269.165 458.487C268.83 458.171 268.496 457.854 268.151 457.528C267.411 456.734 267.411 456.734 267.411 455.857C264.917 457.069 263.539 458.843 262.598 461.415C262.276 462.48 261.979 463.544 261.712 464.624C258.301 461.815 256.417 457.052 255.575 452.789C255.567 452.059 255.566 451.328 255.575 450.597Z" fill="#F3F4F5"/>
<path d="M314.318 446.214C313.943 457.508 310.931 470.633 302.92 479.088C302.63 479.088 302.341 479.088 302.043 479.088C302.031 478.44 302.022 477.792 302.016 477.143C302.01 476.782 302.005 476.421 302 476.049C302.043 474.705 302.043 474.705 302.259 472.988C302.599 470.08 302.562 467.165 302.563 464.24C302.569 463.671 302.574 463.102 302.58 462.516C302.584 459.529 302.412 456.756 301.797 453.833C301.539 452.434 301.541 451.139 301.605 449.721C302.055 449.651 302.505 449.582 302.969 449.51C306.407 448.944 309.414 448.252 312.547 446.647C313.441 446.214 313.441 446.214 314.318 446.214Z" fill="#F7F7F8"/>
<path d="M237.601 446.214C239.206 446.565 240.697 447.143 242.232 447.721C244.906 448.69 247.5 449.336 250.314 449.721C250.813 451.215 250.667 451.776 250.349 453.292C249.736 456.725 249.743 460.111 249.766 463.583C249.767 463.91 249.768 464.237 249.769 464.574C249.782 469.454 249.983 474.263 250.753 479.088C246.315 477.292 244.15 470.917 242.367 466.814C242.04 466.065 241.699 465.321 241.355 464.579C238.994 459.105 237.304 452.189 237.601 446.214Z" fill="#F6F7F7"/>
<path d="M298.562 398.565C299.473 399.369 300.338 400.179 301.166 401.067C299.763 401.067 299.063 400.783 297.769 400.272C285.183 396.102 265.31 395.594 253.077 401.115C252.577 401.308 252.577 401.308 252.068 401.505C251.779 401.361 251.489 401.216 251.191 401.067C263.012 389.029 285.292 388.618 298.562 398.565Z" fill="#828E97"/>
<path d="M345.443 88.9797C344.791 91.0427 344.791 91.0427 343.799 91.6097C343.473 91.7543 343.148 91.899 342.812 92.048C341.905 92.7464 341.049 93.4906 340.182 94.2396C340.826 92.7499 341.664 91.7633 342.812 90.6235C343.12 90.3138 343.427 90.0042 343.744 89.6852C344.566 88.9797 344.566 88.9797 345.443 88.9797ZM339.744 94.2396C339.744 94.6736 339.744 95.1075 339.744 95.5546C339.31 95.8439 338.876 96.1332 338.428 96.4312C339.25 94.7327 339.25 94.7327 339.744 94.2396Z" fill="#182129"/>
<path d="M453.722 83.2817C454.75 84.3098 455.018 85.0174 455.08 86.4647C455.075 86.8156 455.07 87.1665 455.065 87.528C455.061 87.8823 455.057 88.2365 455.053 88.6016C455.048 88.8711 455.042 89.1406 455.037 89.4183C453.9 87.712 453.177 86.2896 453.448 84.2132C453.538 83.9058 453.629 83.5984 453.722 83.2817Z" fill="#5F6770"/>
<path d="M247.684 315.594C249.657 316.58 249.657 316.58 250.314 318.223C249.591 317.79 248.868 317.356 248.122 316.908C248.122 318.066 248.122 319.223 248.122 320.415C247.978 320.415 247.833 320.415 247.684 320.415C247.684 318.824 247.684 317.233 247.684 315.594Z" fill="#8A95A0"/>
<path d="M245.492 141.579C246.972 142.099 247.968 142.576 248.999 143.77C248.565 144.204 248.131 144.638 247.684 145.085C246.599 143.35 246.599 143.35 245.492 141.579Z" fill="#151E28"/>
</g>
<defs>
<clipPath id="clip0_52_12">
<rect width="530" height="565" fill="white"/>
</clipPath>
</defs>
</svg>
