<?xml version="1.0" standalone="no"?>
<!DOCTYPE svg PUBLIC "-//W3C//DTD SVG 20010904//EN"
 "http://www.w3.org/TR/2001/REC-SVG-20010904/DTD/svg10.dtd">
<svg version="1.0" xmlns="http://www.w3.org/2000/svg"
 width="484.000000pt" height="516.000000pt" viewBox="0 0 484.000000 516.000000"
 preserveAspectRatio="xMidYMid meet">

<g transform="translate(0.000000,516.000000) scale(0.100000,-0.100000)"
fill="#000000" stroke="none">
<path d="M918 4960 c-57 -137 -112 -410 -123 -605 -12 -217 13 -403 91 -656
24 -81 44 -150 44 -155 0 -14 -61 49 -108 111 -24 33 -42 51 -39 40 3 -11 15
-57 26 -102 25 -100 59 -199 105 -313 l34 -85 -23 -46 c-42 -82 -166 -292
-227 -382 -33 -49 -58 -91 -55 -93 2 -3 46 2 98 11 52 8 107 15 122 15 28 0
27 -1 -33 -69 -122 -136 -247 -327 -275 -420 l-7 -25 33 23 c88 57 224 111
281 111 l28 0 -29 -57 c-59 -119 -112 -301 -137 -478 l-7 -50 49 48 c57 57
115 93 164 102 l36 6 -4 -123 c-5 -142 12 -243 60 -370 25 -67 119 -228 132
-228 2 0 2 26 -1 57 -6 72 20 250 45 306 l19 42 12 -45 c86 -330 294 -664 560
-899 l70 -63 -34 75 c-48 105 -113 336 -98 351 8 8 113 -116 190 -224 84 -118
191 -288 252 -400 l41 -75 0 73 c0 39 4 72 9 72 19 0 238 -262 290 -347 13
-20 5 -28 107 109 63 85 195 238 205 238 5 0 9 -31 11 -70 l3 -69 60 106 c110
197 344 529 410 583 17 14 17 12 10 -30 -11 -70 -50 -201 -88 -294 -20 -47
-33 -86 -30 -86 12 0 197 188 257 260 88 105 175 238 236 359 51 102 130 317
130 356 0 36 21 0 41 -72 12 -40 22 -118 26 -191 l6 -122 23 34 c128 188 184
396 165 609 -6 73 -5 77 14 77 37 0 123 -48 174 -97 61 -59 61 -57 30 103 -22
116 -65 253 -110 353 -16 35 -29 66 -29 69 0 2 21 1 47 -3 62 -9 165 -50 231
-93 30 -18 55 -32 57 -30 7 7 -89 186 -133 248 -54 77 -120 158 -176 218 l-40
42 34 0 c19 0 75 -7 124 -16 48 -8 90 -13 93 -10 3 2 -24 49 -60 103 -88 132
-237 393 -237 414 0 10 20 68 44 131 41 103 95 278 110 353 l6 30 -17 -25
c-32 -46 -117 -132 -121 -121 -2 5 15 72 36 148 105 365 118 625 47 968 -17
80 -82 306 -92 315 -2 3 -11 -4 -19 -15 -43 -59 -168 -195 -234 -254 -162
-145 -238 -200 -520 -371 -101 -61 -199 -123 -217 -137 -19 -14 -36 -23 -39
-20 -3 3 10 38 30 78 20 40 35 74 32 76 -5 5 -79 -20 -193 -64 l-93 -36 -77
38 c-84 41 -129 68 -211 128 l-53 38 -37 -29 c-49 -39 -184 -121 -250 -151
l-51 -24 -83 33 c-72 28 -194 70 -204 70 -2 0 12 -32 32 -71 19 -38 34 -74 32
-80 -2 -5 -27 7 -56 27 -29 19 -116 73 -192 119 -189 114 -309 195 -415 281
-91 73 -246 227 -322 319 l-41 50 -14 -35z m645 -2192 c12 -7 24 -16 27 -19 3
-3 19 -11 35 -17 24 -10 39 -30 69 -91 36 -73 56 -103 107 -159 12 -12 19 -25
15 -29 -3 -3 -6 -1 -6 6 0 7 -6 11 -12 9 -7 -3 -13 -9 -13 -14 0 -5 -4 -15 -8
-21 -5 -8 -3 -13 4 -13 7 0 10 -3 6 -6 -3 -3 -11 -3 -17 1 -8 5 -8 10 0 20 8
9 8 15 0 20 -17 11 -11 28 8 20 13 -5 14 -3 5 6 -16 16 -36 1 -29 -25 5 -19 4
-19 -14 4 -11 14 -25 40 -32 58 -7 17 -16 32 -20 32 -9 0 3 -83 18 -127 4 -10
-10 0 -30 22 -42 44 -121 199 -110 216 3 6 2 14 -5 18 -14 9 -42 101 -30 101
5 0 19 -6 32 -12z m1951 -10 c-15 -51 -24 -68 -34 -68 -5 0 -10 6 -10 13 -1 7
-7 4 -15 -7 -8 -10 -12 -22 -10 -26 8 -12 -30 -75 -44 -75 -8 0 -15 -6 -17
-13 -1 -7 0 -8 3 -2 2 5 9 10 14 10 6 0 7 -5 4 -10 -4 -7 3 -9 22 -4 27 6 28
6 8 -11 -11 -9 -14 -14 -7 -10 21 11 13 -10 -26 -71 -42 -65 -82 -105 -68 -69
11 30 28 126 23 131 -2 3 -17 -19 -32 -48 -34 -67 -45 -79 -58 -71 -6 3 -7 1
-3 -6 4 -6 2 -18 -4 -26 -16 -19 -139 -19 -190 -1 l-35 13 50 12 c48 12 169
60 152 61 -4 0 6 12 23 28 16 15 45 53 63 84 19 32 37 55 40 52 7 -8 20 34 13
45 -3 4 4 17 15 27 17 15 23 16 41 5 18 -11 20 -11 15 1 -6 18 2 31 28 46 33
19 47 15 39 -10z m-34 -88 c-6 -4 -10 -11 -9 -16 3 -20 -2 -35 -10 -29 -7 4
-8 41 -2 62 1 1 8 0 17 -4 11 -4 12 -8 4 -13z m-26 -65 c3 -9 0 -15 -9 -15 -9
0 -12 6 -9 15 4 8 7 15 9 15 2 0 5 -7 9 -15z m-1580 -167 c-4 -6 -3 -8 3 -5 6
4 36 -1 67 -10 46 -13 54 -18 41 -26 -10 -5 -41 -11 -69 -14 -28 -2 -56 -6
-63 -8 -7 -2 -15 0 -17 4 -9 13 17 71 32 71 7 0 10 -5 6 -12z m-44 -8 c11 -7
11 -10 2 -10 -7 0 -10 -4 -7 -10 3 -6 -1 -7 -9 -4 -9 3 -16 12 -16 20 0 16 9
18 30 4z m715 1 c3 -6 39 -28 79 -50 l74 -41 -15 -41 c-18 -53 -43 -185 -43
-224 1 -26 4 -22 25 27 13 32 43 85 67 119 l43 62 5 -157 5 -157 34 73 c34 73
90 163 97 156 2 -3 -5 -51 -15 -109 -31 -171 -40 -239 -46 -339 -3 -52 -8
-105 -11 -117 -2 -13 0 -23 5 -23 5 0 12 17 15 38 11 58 63 206 88 248 l22 38
18 -110 c41 -249 49 -340 38 -410 -13 -79 -39 -136 -89 -187 -60 -63 -183
-107 -302 -107 l-64 0 70 46 c151 100 190 158 187 276 -1 47 -8 90 -17 107
-21 42 -75 80 -137 97 -64 17 -227 18 -300 3 -77 -16 -105 -34 -139 -87 -25
-40 -29 -55 -29 -120 0 -121 48 -190 194 -280 l60 -37 -48 -3 c-64 -4 -184 22
-245 52 -54 28 -112 91 -137 152 -27 64 -29 200 -4 359 12 77 24 161 27 188 3
26 10 47 15 47 15 0 65 -118 92 -215 l25 -90 0 70 c1 90 -14 229 -39 379 -12
65 -19 121 -16 123 8 9 85 -119 103 -172 l18 -50 5 155 5 154 35 -41 c35 -40
67 -97 90 -157 6 -16 12 -27 14 -25 6 7 -13 141 -30 203 -9 34 -17 66 -17 73
-2 12 147 110 170 112 6 1 14 -3 18 -8z m-730 -41 c3 -6 -1 -7 -9 -4 -18 7
-21 14 -7 14 6 0 13 -4 16 -10z m852 -845 c31 -14 54 -27 52 -29 -2 -2 -29 0
-59 6 -71 13 -297 5 -329 -11 -15 -8 -21 -9 -17 -2 11 16 59 39 118 56 70 20
163 11 235 -20z m-402 -487 c19 -3 20 -10 18 -118 -3 -109 -2 -113 11 -75 8
22 14 36 15 30 1 -5 15 -34 32 -64 l31 -54 14 31 c13 32 34 43 34 18 0 -7 6
-19 14 -25 11 -10 17 -7 30 10 l16 23 24 -23 24 -22 16 23 17 23 18 -24 19
-25 21 34 20 34 16 -39 17 -38 23 41 c13 23 26 50 30 62 13 40 25 19 25 -43 0
-37 -6 -71 -13 -82 -15 -19 -30 -19 -164 4 -50 9 -77 8 -135 -4 -105 -22 -126
-20 -134 10 -3 13 -11 23 -16 22 -32 -6 -118 190 -118 268 l0 35 38 -14 c20
-8 46 -16 57 -18z m595 -78 c-13 -61 -64 -172 -86 -191 -12 -10 -14 6 -16 110
-1 66 -2 128 -2 137 -1 12 13 20 47 29 26 7 51 15 55 19 13 14 14 -48 2 -104z
m-150 50 c-1 -20 -35 -96 -47 -103 -5 -4 -17 9 -26 28 -18 38 -28 43 -47 20
-14 -16 -40 -20 -40 -6 0 20 -34 21 -55 1 l-22 -20 -18 20 c-25 27 -30 26 -49
-15 -10 -20 -21 -33 -27 -30 -13 9 -35 55 -43 90 l-6 30 190 0 c162 0 190 -2
190 -15z"/>
<path d="M1604 2710 c0 -13 4 -16 10 -10 7 7 7 13 0 20 -6 6 -10 3 -10 -10z"/>
<path d="M1632 2716 c4 -5 3 -15 -3 -22 -7 -9 -6 -12 5 -10 25 3 28 12 9 27
-10 7 -15 9 -11 5z"/>
<path d="M1582 2655 c0 -16 2 -22 5 -12 2 9 2 23 0 30 -3 6 -5 -1 -5 -18z"/>
<path d="M3399 2718 c-7 -26 -5 -35 10 -33 9 2 20 4 25 4 11 1 -13 31 -25 31
-5 0 -9 -1 -10 -2z"/>
<path d="M3206 2423 c-6 -14 -5 -15 5 -6 7 7 10 15 7 18 -3 3 -9 -2 -12 -12z"/>
</g>
</svg>
