<svg width="527" height="656" viewBox="0 0 527 656" fill="none" xmlns="http://www.w3.org/2000/svg">
<path d="M49.4 4.66669C41.8 22.9334 34.4666 59.3334 33 85.3334C31.4 114.267 34.7333 139.067 45.1333 172.8C48.3333 183.6 51 192.8 51 193.467C51 195.333 42.8666 186.933 36.6 178.667C33.4 174.267 31 171.867 31.4 173.333C31.8 174.8 33.4 180.933 34.8666 186.933C38.2 200.267 42.7333 213.467 48.8666 228.667L53.4 240L50.3333 246.133C44.7333 257.067 28.2 285.067 20.0666 297.067C15.6666 303.6 12.3333 309.2 12.7333 309.467C13 309.867 18.8666 309.2 25.8 308C32.7333 306.933 40.0666 306 42.0666 306C45.8 306 45.6666 306.133 37.6666 315.2C21.4 333.333 4.73332 358.8 0.999984 371.2L0.0666504 374.533L4.46665 371.467C16.2 363.867 34.3333 356.667 41.9333 356.667H45.6666L41.8 364.267C33.9333 380.133 26.8666 404.4 23.5333 428L22.6 434.667L29.1333 428.267C36.7333 420.667 44.4666 415.867 51 414.667L55.8 413.867L55.2666 430.267C54.6 449.2 56.8666 462.667 63.2666 479.6C66.6 488.533 79.1333 510 80.8666 510C81.1333 510 81.1333 506.533 80.7333 502.4C79.9333 492.8 83.4 469.067 86.7333 461.6L89.2666 456L90.8666 462C102.333 506 130.067 550.533 165.533 581.867L174.867 590.267L170.333 580.267C163.933 566.267 155.267 535.467 157.267 533.467C158.333 532.4 172.333 548.933 182.6 563.333C193.8 579.067 208.067 601.733 216.2 616.667L221.667 626.667V616.933C221.667 611.733 222.2 607.333 222.867 607.333C225.4 607.333 254.6 642.267 261.533 653.6C263.267 656.267 262.2 657.333 275.8 639.067C284.2 627.733 301.8 607.333 303.133 607.333C303.8 607.333 304.333 611.467 304.6 616.667L305 625.867L313 611.733C327.667 585.467 358.867 541.2 367.667 534C369.933 532.133 369.933 532.4 369 538C367.533 547.333 362.333 564.8 357.267 577.2C354.6 583.467 352.867 588.667 353.267 588.667C354.867 588.667 379.533 563.6 387.533 554C399.267 540 410.867 522.267 419 506.133C425.8 492.533 436.333 463.867 436.333 458.667C436.333 453.867 439.133 458.667 441.8 468.267C443.4 473.6 444.733 484 445.267 493.733L446.067 510L449.133 505.467C466.2 480.4 473.667 452.667 471.133 424.267C470.333 414.533 470.467 414 473 414C477.933 414 489.4 420.4 496.2 426.933C504.333 434.8 504.333 434.533 500.2 413.2C497.267 397.733 491.533 379.467 485.533 366.133C483.4 361.467 481.667 357.333 481.667 356.933C481.667 356.667 484.467 356.8 487.933 357.333C496.2 358.533 509.933 364 518.733 369.733C522.733 372.133 526.067 374 526.333 373.733C527.267 372.8 514.467 348.933 508.6 340.667C501.4 330.4 492.6 319.6 485.133 311.6L479.8 306H484.333C486.867 306 494.333 306.933 500.867 308.133C507.267 309.2 512.867 309.867 513.267 309.467C513.667 309.2 510.067 302.933 505.267 295.733C493.533 278.133 473.667 243.333 473.667 240.533C473.667 239.2 476.333 231.467 479.533 223.067C485 209.333 492.2 186 494.2 176L495 172L492.733 175.333C488.467 181.467 477.133 192.933 476.6 191.467C476.333 190.8 478.6 181.867 481.4 171.733C495.4 123.067 497.133 88.4 487.667 42.6667C485.4 32 476.733 1.86669 475.4 0.666687C475.133 0.266687 473.933 1.20002 472.867 2.66669C467.133 10.5334 450.467 28.6667 441.667 36.5334C420.067 55.8667 409.933 63.2001 372.333 86.0001C358.867 94.1334 345.8 102.4 343.4 104.267C340.867 106.133 338.6 107.333 338.2 106.933C337.8 106.533 339.533 101.867 342.2 96.5334C344.867 91.2001 346.867 86.6667 346.467 86.4C345.8 85.7334 335.933 89.0667 320.733 94.9334L308.333 99.7334L298.067 94.6667C286.867 89.2001 280.867 85.6 269.933 77.6L262.867 72.5334L257.933 76.4C251.4 81.6 233.4 92.5334 224.6 96.5334L217.8 99.7334L206.733 95.3334C197.133 91.6 180.867 86.0001 179.533 86.0001C179.267 86.0001 181.133 90.2667 183.8 95.4667C186.333 100.533 188.333 105.333 188.067 106.133C187.8 106.8 184.467 105.2 180.6 102.533C176.733 100 165.133 92.8001 155 86.6667C129.8 71.4667 113.8 60.6667 99.6666 49.2001C87.5333 39.4667 66.8666 18.9334 56.7333 6.66669L51.2666 6.10352e-05L49.4 4.66669ZM135.4 296.933C137 297.867 138.6 299.067 139 299.467C139.4 299.867 141.533 300.933 143.667 301.733C146.867 303.067 148.867 305.733 152.867 313.867C157.667 323.6 160.333 327.6 167.133 335.067C168.733 336.667 172.033 337.967 171.5 338.5C166.395 343.605 198.516 344.117 191.667 346.4C184.772 349.355 167.988 349.333 163 349.333C161.8 349.333 152.467 337.067 154.467 342.933C155 344.267 153.133 342.933 150.467 340C144.867 334.133 134.333 313.467 135.8 311.2C136.2 310.4 136.067 309.333 135.133 308.8C133.267 307.6 129.533 295.333 131.133 295.333C131.8 295.333 133.667 296.133 135.4 296.933ZM395.533 298.267C393.533 305.067 392.333 310 391 310C390 312 392.765 311.781 386.333 324.224C384.855 325.434 384.207 329.158 380.6 334.8C372 343.467 370.067 343.467 361.667 346.667C359.533 349.2 343.133 349.2 336.333 346.8L331.667 345.067L338.333 343.467C344.733 341.867 360.867 335.467 358.6 335.333C358.067 335.333 359.4 333.733 361.667 331.6C363.8 329.6 367.667 324.533 370.067 320.4C372.6 316.133 375 313.067 375.4 313.467C376.333 314.533 378.067 308.933 377.133 307.467C376.733 306.933 377.667 305.2 379.133 303.867C381.4 301.867 382.2 301.733 384.6 303.2C387 304.667 387.267 304.667 386.6 303.067C385.8 300.667 386.867 298.933 390.333 296.933C394.733 294.4 396.6 294.933 395.533 298.267ZM266.333 341.867C266.733 342.667 271.533 345.6 276.867 348.533L286.733 354L284.733 359.467C282.333 366.533 279 384.133 279 389.333C279.133 392.8 279.533 392.267 282.333 385.733C284.067 381.467 288.067 374.4 291.267 369.867L297 361.6L297.667 382.533L298.333 403.467L302.867 393.733C307.4 384 314.867 372 315.8 372.933C316.067 373.333 315.133 379.733 313.8 387.467C309.667 410.267 308.467 419.333 307.667 432.667C307.267 439.6 306.6 446.667 306.2 448.267C305.933 450 306.2 451.333 306.867 451.333C307.533 451.333 308.467 449.067 308.867 446.267C310.333 438.533 317.267 418.8 320.6 413.2L323.533 408.133L325.933 422.8C331.4 456 332.467 468.133 331 477.467C329.267 488 325.8 495.6 319.133 502.4C311.133 510.8 294.733 516.667 278.867 516.667H270.333L279.667 510.533C299.8 497.2 305 489.467 304.6 473.733C304.467 467.467 303.533 461.733 302.333 459.467C299.533 453.867 292.333 448.8 284.067 446.533C275.533 444.267 253.8 444.133 244.067 446.133C233.8 448.267 230.067 450.667 225.533 457.733C222.2 463.067 221.667 465.067 221.667 473.733C221.667 489.867 228.067 499.067 247.533 511.067L255.533 516L249.133 516.4C240.6 516.933 224.6 513.467 216.467 509.467C209.267 505.733 201.533 497.333 198.2 489.2C194.6 480.667 194.333 462.533 197.667 441.333C199.267 431.067 200.867 419.867 201.267 416.267C201.667 412.8 202.6 410 203.267 410C205.267 410 211.933 425.733 215.533 438.667L218.867 450.667V441.333C219 429.333 217 410.8 213.667 390.8C212.067 382.133 211.133 374.667 211.533 374.4C212.6 373.2 222.867 390.267 225.267 397.333L227.667 404L228.333 383.333L229 362.8L233.667 368.267C238.333 373.6 242.6 381.2 245.667 389.2C246.467 391.333 247.267 392.8 247.533 392.533C248.333 391.6 245.8 373.733 243.533 365.467C242.333 360.933 241.267 356.667 241.267 355.733C241 354.133 260.867 341.067 263.933 340.8C264.733 340.667 265.8 341.2 266.333 341.867ZM282.6 460C286.733 461.867 289.8 463.6 289.533 463.867C289.267 464.133 285.667 463.867 281.667 463.067C272.2 461.333 242.067 462.4 237.8 464.533C235.8 465.6 235 465.733 235.533 464.8C237 462.667 243.4 459.6 251.267 457.333C260.6 454.667 273 455.867 282.6 460ZM229 524.933C231.533 525.333 231.667 526.267 231.4 540.667C231 555.2 231.133 555.733 232.867 550.667C233.933 547.733 234.733 545.867 234.867 546.667C235 547.333 236.867 551.2 239.133 555.2L243.267 562.4L245.133 558.267C246.867 554 249.667 552.533 249.667 555.867C249.667 556.8 250.467 558.4 251.533 559.2C253 560.533 253.8 560.133 255.533 557.867L257.667 554.8L260.867 557.867L264.067 560.8L266.2 557.733L268.467 554.667L270.867 557.867L273.4 561.2L276.2 556.667L278.867 552.133L281 557.333L283.267 562.4L286.333 556.933C288.067 553.867 289.8 550.267 290.333 548.667C292.067 543.333 293.667 546.133 293.667 554.4C293.667 559.333 292.867 563.867 291.933 565.333C289.933 567.867 287.933 567.867 270.067 564.8C263.4 563.6 259.8 563.733 252.067 565.333C238.067 568.267 235.267 568 234.2 564C233.8 562.267 232.733 560.933 232.067 561.067C227.8 561.867 216.333 535.733 216.333 525.333V520.667L221.4 522.533C224.067 523.6 227.533 524.667 229 524.933ZM308.333 535.333C306.6 543.467 299.8 558.267 296.867 560.8C295.267 562.133 295 560 294.733 546.133C294.6 537.333 294.467 529.067 294.467 527.867C294.333 526.267 296.2 525.2 300.733 524C304.2 523.067 307.533 522 308.067 521.467C309.8 519.6 309.933 527.867 308.333 535.333ZM288.333 528.667C288.2 531.333 283.667 541.467 282.067 542.4C281.4 542.933 279.8 541.2 278.6 538.667C276.2 533.6 274.867 532.933 272.333 536C270.467 538.133 267 538.667 267 536.8C267 534.133 262.467 534 259.667 536.667L256.733 539.333L254.333 536.667C251 533.067 250.333 533.2 247.8 538.667C246.467 541.333 245 543.067 244.2 542.667C242.467 541.467 239.533 535.333 238.467 530.667L237.667 526.667H263C284.6 526.667 288.333 526.933 288.333 528.667Z" fill="black"/>
</svg>
