<svg width="499" height="499" viewBox="0 0 499 499" fill="none" xmlns="http://www.w3.org/2000/svg">
<path d="M33 94H89V335H184V390L33 389V94Z" fill="url(#paint0_linear_66_22)"/>
<path d="M199 94H254V175L326.5 94H397L199 309.5V94Z" fill="url(#paint1_linear_66_22)"/>
<path d="M473 267.049C441.019 267.54 408.987 267.06 377 267C384 303.5 427.893 300.5 442 280C442 280 459.865 288.825 466 293C451.121 317.5 423.5 321.5 410.721 321.5C379.5 321.5 352.856 297.538 345.445 273.173C339.197 242.617 354.5 197 410.721 197C438 197 477.225 215.883 473 267.049ZM377 244H443C427.893 216.5 395.106 217 377 244Z" fill="url(#paint2_linear_66_22)"/>
<path d="M292.5 235.5L419 390L354.063 390.481C332.619 365.351 255.984 272.027 255.984 272.027L292.5 235.5Z" fill="url(#paint3_linear_66_22)"/>
<path d="M177 206V318C171.992 318.029 146 318 146 318V206H177Z" fill="url(#paint4_linear_66_22)"/>
<path d="M199 335C216.82 335 234.64 335 253 335C253 353.15 253 371.3 253 390C235.18 390 217.36 390 199 390C199 371.85 199 353.7 199 335Z" fill="url(#paint5_linear_66_22)"/>
<path d="M253 276V298.5V321H211L253 276Z" fill="url(#paint6_linear_66_22)"/>
<circle cx="161.5" cy="174.5" r="15.5" fill="url(#paint7_linear_66_22)"/>
<defs>
<linearGradient id="paint0_linear_66_22" x1="108.5" y1="94" x2="108.5" y2="390" gradientUnits="userSpaceOnUse">
<stop stop-color="#3B82F6"/>
<stop offset="1" stop-color="#8B5CF6"/>
</linearGradient>
<linearGradient id="paint1_linear_66_22" x1="298" y1="94" x2="298" y2="309.5" gradientUnits="userSpaceOnUse">
<stop stop-color="#3B82F6"/>
<stop offset="1" stop-color="#8B5CF6"/>
</linearGradient>
<linearGradient id="paint2_linear_66_22" x1="408.727" y1="197" x2="408.727" y2="321.5" gradientUnits="userSpaceOnUse">
<stop stop-color="#3B82F6"/>
<stop offset="1" stop-color="#8B5CF6"/>
</linearGradient>
<linearGradient id="paint3_linear_66_22" x1="337.492" y1="235.5" x2="337.492" y2="390.481" gradientUnits="userSpaceOnUse">
<stop stop-color="#3B82F6"/>
<stop offset="1" stop-color="#8B5CF6"/>
</linearGradient>
<linearGradient id="paint4_linear_66_22" x1="161.5" y1="206" x2="161.5" y2="318.013" gradientUnits="userSpaceOnUse">
<stop stop-color="#3B82F6"/>
<stop offset="1" stop-color="#8B5CF6"/>
</linearGradient>
<linearGradient id="paint5_linear_66_22" x1="226" y1="335" x2="226" y2="390" gradientUnits="userSpaceOnUse">
<stop stop-color="#3B82F6"/>
<stop offset="1" stop-color="#8B5CF6"/>
</linearGradient>
<linearGradient id="paint6_linear_66_22" x1="232" y1="276" x2="232" y2="321" gradientUnits="userSpaceOnUse">
<stop stop-color="#3B82F6"/>
<stop offset="1" stop-color="#8B5CF6"/>
</linearGradient>
<linearGradient id="paint7_linear_66_22" x1="161.5" y1="159" x2="161.5" y2="190" gradientUnits="userSpaceOnUse">
<stop stop-color="#3B82F6"/>
<stop offset="1" stop-color="#8B5CF6"/>
</linearGradient>
</defs>
</svg>
